<svg width="29" height="28" viewBox="0 0 29 28" fill="none" xmlns="http://www.w3.org/2000/svg">
<path fill-rule="evenodd" clip-rule="evenodd" d="M25.0962 28H3.34615C2.78846 28 2.23077 27.7113 1.67308 27.4227C1.39423 26.8454 1.11538 26.268 1.11538 25.6907V12.1237H0.557692H0V11.5464V7.2165C0 6.35052 0.278846 5.48454 0.836539 4.90722C1.39423 4.3299 2.23077 4.04124 3.06731 4.04124H26.2115C27.0481 4.04124 27.6058 4.3299 28.1635 4.90722C28.7212 5.48454 29 6.06186 29 6.92784V11.5464V12.1237H28.4423H27.8846V25.4021C27.8846 25.9794 27.6058 26.8454 27.0481 27.134C26.4904 27.7113 25.9327 28 25.0962 28ZM18.4038 3.75258C18.125 2.8866 17.2885 2.59794 16.4519 2.30928C15.8942 2.02062 15.0577 2.02062 14.5 2.02062C13.6635 2.02062 13.1058 2.02062 12.2692 2.30928C11.4327 2.59794 10.5962 2.8866 10.3173 3.75258L8.64423 2.59794C9.20192 1.73196 10.3173 0.865979 11.4327 0.57732C11.9904 0.57732 12.2692 0.28866 12.8269 0.28866C13.3846 0 13.9423 0 14.5 0C15.0577 0 15.3365 0 15.8942 0C16.4519 0 16.7308 0.28866 17.2885 0.28866C18.4038 0.57732 19.5192 1.4433 20.0769 2.30928L18.4038 3.75258ZM15.8942 12.4124V13.567H17.0096H17.2885C17.2885 13.567 17.2885 13.567 17.2885 13.2784V10.3918V10.1031C17.2885 10.1031 17.2885 10.1031 17.0096 10.1031H13.1058H12.8269C12.8269 10.1031 12.8269 10.1031 12.8269 10.3918V13.2784V13.567C12.8269 13.567 12.8269 13.567 13.1058 13.567H13.9423V12.4124H15.8942ZM15.8942 15.299V16.4536H13.9423V15.299H13.1058C12.5481 15.299 11.9904 15.0103 11.7115 14.7217C11.1538 14.1443 10.875 13.567 10.875 12.9897V12.701H2.23077V25.6907C2.23077 25.9794 2.23077 26.268 2.50962 26.5567C2.78846 26.5567 3.06731 26.8454 3.34615 26.8454H25.0962C25.375 26.8454 25.9327 26.5567 25.9327 26.5567C26.4904 25.9794 26.4904 25.6907 26.4904 25.4021V12.701H18.9615V13.2784C18.9615 13.8557 18.6827 14.433 18.4038 14.7217C18.125 15.0103 17.5673 15.299 17.0096 15.299H15.8942ZM13.1058 8.08247H17.0096C17.5673 8.08247 18.125 8.37113 18.4038 8.65979C18.6827 8.94845 18.9615 9.52577 18.9615 10.1031V10.6804H27.6058V6.92784C27.6058 6.63918 27.3269 6.06186 27.0481 5.7732C27.0481 5.48454 26.4904 5.48454 26.2115 5.48454H3.06731C2.50962 5.48454 1.95192 5.48454 1.67308 5.7732C1.39423 6.35052 1.11538 6.63918 1.11538 7.2165V10.9691H10.875V10.1031C10.875 9.52577 11.1538 8.94845 11.4327 8.65979C11.9904 8.37113 12.5481 8.08247 13.1058 8.08247Z" fill="#BEBEBE"/>
</svg>
