<svg width="23" height="25" viewBox="0 0 23 25" fill="none" xmlns="http://www.w3.org/2000/svg">
<path fill-rule="evenodd" clip-rule="evenodd" d="M11.6998 16.9H16.8998C17.6148 16.9 18.1998 17.485 18.1998 18.2C18.1998 18.915 17.6148 19.5 16.8998 19.5H11.6998C10.9848 19.5 10.3998 18.915 10.3998 18.2C10.3998 17.485 10.9848 16.9 11.6998 16.9ZM5.2 18.2C5.2 17.485 5.785 16.9 6.5 16.9C7.215 16.9 7.8 17.485 7.8 18.2C7.8 18.915 7.215 19.5 6.5 19.5C5.785 19.5 5.2 18.915 5.2 18.2ZM19.6429 23H3.35714C2.60936 23 2 22.4227 2 21.7143V14H21V21.7143C21 22.4227 20.3906 23 19.6429 23ZM3.35714 5H4.71429V6.4C4.71429 7.17 5.325 7.8 6.07143 7.8C6.81786 7.8 7.42857 7.17 7.42857 6.4V5H15.5714V6.4C15.5714 7.17 16.1821 7.8 16.9286 7.8C17.675 7.8 18.2857 7.17 18.2857 6.4V5H19.6429C20.3906 5 21 5.6286 21 6.4V12H2V6.4C2 5.6286 2.60936 5 3.35714 5ZM19.1667 2.5H17.8889V1.25C17.8889 0.5625 17.3139 0 16.6111 0C15.9083 0 15.3333 0.5625 15.3333 1.25V2.5H7.66667V1.25C7.66667 0.5625 7.09167 0 6.38889 0C5.68611 0 5.11111 0.5625 5.11111 1.25V2.5H3.83333C1.71989 2.5 0 4.1825 0 6.25V21.25C0 23.3175 1.71989 25 3.83333 25H19.1667C21.2801 25 23 23.3175 23 21.25V6.25C23 4.1825 21.2801 2.5 19.1667 2.5Z" fill="#707C97"/>
</svg>
