<svg width="33" height="25" viewBox="0 0 33 25" fill="none" xmlns="http://www.w3.org/2000/svg">
<path d="M27.3344 20.183C28.8967 21.4409 30.2664 22.5361 31.6896 23.6747C28.9074 23.7506 26.3071 23.2626 24.0814 21.5385C23.2146 20.8661 22.412 20.7143 21.3741 20.9312C17.2329 21.7987 13.0703 22.6012 8.91843 23.4145C5.537 24.0759 3.82488 22.9265 3.16144 19.5323C2.5836 16.5177 2.00576 13.5031 1.43862 10.4885C0.903586 7.65821 2.09137 5.77137 4.86285 5.20748C11.2405 3.91705 17.6288 2.65916 24.0172 1.43379C26.7993 0.902438 28.6292 2.19287 29.1749 4.97976C29.7848 8.08113 30.3841 11.1825 30.9619 14.2839C31.4863 17.0599 30.7479 18.4479 28.1583 19.6408C28.0085 19.7058 27.8694 19.8251 27.3344 20.183Z" stroke="#707C97" stroke-width="1.43491" stroke-miterlimit="10" stroke-linecap="round" stroke-linejoin="round"/>
<path d="M13.327 18.8383C14.048 18.8383 14.6325 18.246 14.6325 17.5153C14.6325 16.7847 14.048 16.1924 13.327 16.1924C12.606 16.1924 12.0215 16.7847 12.0215 17.5153C12.0215 18.246 12.606 18.8383 13.327 18.8383Z" stroke="#707C97" stroke-width="1.43491" stroke-miterlimit="10" stroke-linecap="round" stroke-linejoin="round"/>
<path d="M18.0467 17.9057C18.7677 17.9057 19.3522 17.3134 19.3522 16.5827C19.3522 15.8521 18.7677 15.2598 18.0467 15.2598C17.3257 15.2598 16.7412 15.8521 16.7412 16.5827C16.7412 17.3134 17.3257 17.9057 18.0467 17.9057Z" stroke="#707C97" stroke-width="1.43491" stroke-miterlimit="10" stroke-linecap="round" stroke-linejoin="round"/>
<path d="M22.7869 16.9297C23.5079 16.9297 24.0924 16.3374 24.0924 15.6068C24.0924 14.8761 23.5079 14.2838 22.7869 14.2838C22.0659 14.2838 21.4814 14.8761 21.4814 15.6068C21.4814 16.3374 22.0659 16.9297 22.7869 16.9297Z" stroke="#707C97" stroke-width="1.43491" stroke-miterlimit="10" stroke-linecap="round" stroke-linejoin="round"/>
</svg>
