<svg width="26" height="25" viewBox="0 0 26 25" fill="none" xmlns="http://www.w3.org/2000/svg">
<path fill-rule="evenodd" clip-rule="evenodd" d="M22.2528 25H2.96703C2.47253 25 1.97802 24.7423 1.48352 24.4845C1.23626 23.9691 0.989011 23.4536 0.989011 22.9381V10.8247H0.494506H0V10.3093V6.4433C0 5.6701 0.247253 4.89691 0.741758 4.38144C1.23626 3.86598 1.97802 3.60825 2.71978 3.60825H23.2418C23.9835 3.60825 24.478 3.86598 24.9725 4.38144C25.467 4.89691 25.7143 5.41237 25.7143 6.18557V10.3093V10.8247H25.2198H24.7253V22.6804C24.7253 23.1959 24.478 23.9691 23.9835 24.2268C23.489 24.7423 22.9945 25 22.2528 25ZM16.3187 3.35052C16.0714 2.57732 15.3297 2.31959 14.5879 2.06186C14.0934 1.80412 13.3516 1.80412 12.8571 1.80412C12.1154 1.80412 11.6209 1.80412 10.8791 2.06186C10.1374 2.31959 9.39561 2.57732 9.14835 3.35052L7.66484 2.31959C8.15934 1.54639 9.14835 0.773196 10.1374 0.515464C10.6319 0.515464 10.8791 0.257732 11.3736 0.257732C11.8681 0 12.3626 0 12.8571 0C13.3516 0 13.5989 0 14.0934 0C14.5879 0 14.8352 0.257732 15.3297 0.257732C16.3187 0.515464 17.3077 1.28866 17.8022 2.06186L16.3187 3.35052ZM14.0934 11.0825V12.1134H15.0824H15.3297C15.3297 12.1134 15.3297 12.1134 15.3297 11.8557V9.27835V9.02062C15.3297 9.02062 15.3297 9.02062 15.0824 9.02062H11.6209H11.3736C11.3736 9.02062 11.3736 9.02062 11.3736 9.27835V11.8557V12.1134C11.3736 12.1134 11.3736 12.1134 11.6209 12.1134H12.3626V11.0825H14.0934ZM14.0934 13.6598V14.6907H12.3626V13.6598H11.6209C11.1264 13.6598 10.6319 13.4021 10.3846 13.1443C9.89011 12.6289 9.64286 12.1134 9.64286 11.5979V11.3402H1.97802V22.9381C1.97802 23.1959 1.97802 23.4536 2.22527 23.7113C2.47253 23.7113 2.71978 23.9691 2.96703 23.9691H22.2528C22.5 23.9691 22.9945 23.7113 22.9945 23.7113C23.489 23.1959 23.489 22.9381 23.489 22.6804V11.3402H16.8132V11.8557C16.8132 12.3711 16.5659 12.8866 16.3187 13.1443C16.0714 13.4021 15.5769 13.6598 15.0824 13.6598H14.0934ZM11.6209 7.2165H15.0824C15.5769 7.2165 16.0714 7.47423 16.3187 7.73196C16.5659 7.98969 16.8132 8.50515 16.8132 9.02062V9.53608H24.478V6.18557C24.478 5.92784 24.2308 5.41237 23.9835 5.15464C23.9835 4.89691 23.489 4.89691 23.2418 4.89691H2.71978C2.22528 4.89691 1.73077 4.89691 1.48352 5.15464C1.23626 5.6701 0.989011 5.92783 0.989011 6.4433V9.79381H9.64286V9.02062C9.64286 8.50515 9.89011 7.98969 10.1374 7.73196C10.6319 7.47423 11.1264 7.2165 11.6209 7.2165Z" fill="#707C97"/>
</svg>
