<svg width="39" height="43" viewBox="0 0 39 43" fill="none" xmlns="http://www.w3.org/2000/svg">
<path fill-rule="evenodd" clip-rule="evenodd" d="M0 16.5965H2.34C2.34 12.0702 4.29 7.92105 7.41 4.90351C10.53 1.88596 14.82 0 19.5 0C24.18 0 28.47 1.88596 31.59 4.90351C35.1 7.92105 37.05 12.0702 37.05 16.5965H39V19.2368H0V16.5965ZM22.62 23.0088H26.13V24.8947H22.62V23.0088ZM12.09 23.0088H15.6V24.8947H12.09V23.0088ZM27.3 36.9649C30.03 35.0789 31.2 32.0614 32.76 29.4211C33.15 29.0439 33.15 28.2895 33.54 27.9123C33.93 27.9123 34.32 27.9123 34.71 27.9123C35.88 27.5351 36.27 26.4035 36.27 25.2719C36.27 24.8947 36.27 24.8947 36.27 24.5175C36.66 23.0088 35.88 22.6316 35.1 22.2544V21.8772L33.15 21.5V22.6316V23.386L33.93 23.7632L34.71 24.1404C34.71 24.5175 34.71 24.5175 34.71 24.8947C34.71 25.6491 34.71 26.4035 34.71 26.4035C33.93 26.4035 32.76 26.4035 32.76 26.4035H32.37L31.98 26.7807C31.59 27.5351 31.2 27.9123 31.2 28.6667C29.25 32.4386 27.3 36.9649 19.89 36.5877C19.89 36.5877 19.89 36.5877 19.5 36.5877C19.5 36.5877 19.5 36.5877 19.11 36.5877C11.7 36.9649 9.75 32.8158 7.8 28.6667C7.41 27.9123 7.02 27.5351 6.63 26.7807L6.24 26.4035H5.85C5.85 26.4035 4.68 26.4035 4.29 26.4035C4.29 26.4035 4.29 25.6491 4.29 24.8947C4.29 24.5175 4.29 24.5175 4.29 24.1404C4.29 23.7632 5.07 23.7632 5.07 23.7632L5.85 23.386V22.6316V21.5H3.51V21.8772C2.73 22.6316 1.95 23.0088 2.34 24.5175C2.34 24.8947 2.34 24.8947 2.34 25.2719C2.73 26.4035 2.73 27.5351 3.9 27.9123C4.29 27.9123 4.68 27.9123 5.07 27.9123C5.46 28.2895 5.46 28.6667 5.85 29.4211C7.41 32.4386 8.97 35.4561 12.09 36.9649L10.53 42.2456L12.48 42.6228L13.65 37.7193C15.6 38.4737 17.16 38.4737 19.5 38.4737C21.84 38.4737 23.79 38.0965 25.74 37.7193L27.3 43L29.25 42.6228L27.3 36.9649ZM29.64 6.41228C28.47 7.16667 27.69 7.54386 27.3 8.67544C26.13 9.80702 25.35 11.3158 24.96 13.2018L23.01 12.8246C23.4 10.5614 24.57 9.05263 25.74 7.54386C26.52 6.78947 27.3 6.03509 28.08 5.2807C25.74 3.77193 22.62 2.64035 19.5 2.64035C16.38 2.64035 13.65 3.77193 11.31 5.2807C12.48 5.6579 13.26 6.41228 14.04 7.54386C15.21 9.05263 15.99 10.5614 16.77 12.8246L14.82 13.2018C14.04 11.3158 13.26 9.80702 12.48 8.67544C11.7 7.54386 10.92 6.78947 9.75 6.41228L9.36 6.78947C7.02 9.05263 5.46 12.4474 5.07 15.8421H34.32C33.93 12.4474 32.37 9.05263 29.64 6.41228C29.64 6.78947 29.64 6.41228 29.64 6.41228Z" fill="#00BBC4"/>
</svg>
