<svg width="27" height="29" viewBox="0 0 27 29" fill="none" xmlns="http://www.w3.org/2000/svg">
<path fill-rule="evenodd" clip-rule="evenodd" d="M21.6307 12.227L22.0142 15.9108H23.3949V16.4595L24.392 16.9297V17.0865C24.392 17.3216 24.392 17.6351 24.2386 17.8703C24.0852 18.027 23.9318 18.1838 23.7784 18.2622L23.7017 18.3405L22.9347 17.9486V17.5568H22.1676L22.2443 18.4189L23.7017 19.1243L23.8551 19.0459C24.2386 18.8892 24.6222 18.6541 24.929 18.3405C25.2358 17.8703 25.3125 17.3216 25.1591 16.773V16.6162L24.1619 16.0676H25.3125L25.696 12.3838H25.0824V9.7973H25.2358V7.05405H24.7756L8.89773 0.548649H8.82102H8.74432H8.66761L8.59091 0H6.44318L6.21307 0.940541L0.230114 7.05405H0V9.64054H5.52273V9.87568C5.52273 14.5 5.52273 19.1243 5.52273 23.7486V23.9838H2.37784V29H12.8864V23.9838H9.74148V9.64054H22.6278V12.227H21.6307ZM23.0114 9.64054H24.5455V12.227H23.0114V9.64054ZM23.0114 7.05405H9.97159L8.82102 1.17568L23.0114 7.05405ZM6.05966 1.95946L4.9858 7.05405H1.07386L6.05966 1.95946ZM8.13068 10.1108L6.28977 11.8351V10.1108H8.13068ZM6.28977 12.3838H8.82102L6.28977 14.6568V12.3838ZM6.28977 15.3622H8.82102L6.28977 17.6351V15.3622ZM6.28977 18.2622H8.82102L6.28977 20.5351V18.2622ZM6.28977 21.1622H9.05114L6.28977 23.7486V21.1622ZM8.97443 23.827H6.75L8.97443 21.7892V23.827ZM8.97443 20.6919H6.75L8.97443 18.6541V20.6919ZM8.97443 17.7919H6.75L8.97443 15.7541V17.7919ZM8.97443 14.8919H6.75L8.97443 12.8541V14.8919ZM8.97443 11.9135H6.75L8.97443 9.87568V11.9135ZM24.3153 7.83784V8.93513H0.767045V7.83784H24.3153ZM7.51705 1.17568L8.5142 6.19189H6.51989L7.51705 1.17568ZM3.06818 28.2162V24.6892H12.1193V28.2162H3.06818ZM24.0852 13.5595L24.0085 14.5784H23.1648L23.0881 13.5595H24.0852ZM27 29H16.7983V24.2189H21.4773V20.2216H26.9233V29H27ZM17.5653 28.2162V25.0027H21.554V28.2162H17.5653ZM22.2443 24.2189V21.0054H26.233V24.2189H22.2443ZM22.2443 28.2162V25.0027H26.233V28.2162H22.2443Z" fill="#BEBEBE"/>
</svg>
