<svg width="26" height="28" viewBox="0 0 26 28" fill="none" xmlns="http://www.w3.org/2000/svg">
<path fill-rule="evenodd" clip-rule="evenodd" d="M0 10.807H1.56C1.56 7.85965 2.86 5.1579 4.94 3.19298C7.02 1.22807 9.88 0 13 0C16.12 0 18.98 1.22807 21.06 3.19298C23.4 5.1579 24.7 7.85965 24.7 10.807H26V12.5263H0V10.807ZM15.08 14.9825H17.42V16.2105H15.08V14.9825ZM8.06 14.9825H10.4V16.2105H8.06V14.9825ZM18.2 24.0702C20.02 22.8421 20.8 20.8772 21.84 19.1579C22.1 18.9123 22.1 18.4211 22.36 18.1754C22.62 18.1754 22.88 18.1754 23.14 18.1754C23.92 17.9298 24.18 17.193 24.18 16.4561C24.18 16.2105 24.18 16.2105 24.18 15.9649C24.44 14.9825 23.92 14.7368 23.4 14.4912V14.2456L22.1 14V14.7368V15.2281L22.62 15.4737L23.14 15.7193C23.14 15.9649 23.14 15.9649 23.14 16.2105C23.14 16.7018 23.14 17.193 23.14 17.193C22.62 17.193 21.84 17.193 21.84 17.193H21.58L21.32 17.4386C21.06 17.9298 20.8 18.1754 20.8 18.6667C19.5 21.1228 18.2 24.0702 13.26 23.8246C13.26 23.8246 13.26 23.8246 13 23.8246C13 23.8246 13 23.8246 12.74 23.8246C7.8 24.0702 6.5 21.3684 5.2 18.6667C4.94 18.1754 4.68 17.9298 4.42 17.4386L4.16 17.193H3.9C3.9 17.193 3.12 17.193 2.86 17.193C2.86 17.193 2.86 16.7018 2.86 16.2105C2.86 15.9649 2.86 15.9649 2.86 15.7193C2.86 15.4737 3.38 15.4737 3.38 15.4737L3.9 15.2281V14.7368V14H2.34V14.2456C1.82 14.7368 1.3 14.9825 1.56 15.9649C1.56 16.2105 1.56 16.2105 1.56 16.4561C1.82 17.193 1.82 17.9298 2.6 18.1754C2.86 18.1754 3.12 18.1754 3.38 18.1754C3.64 18.4211 3.64 18.6667 3.9 19.1579C4.94 21.1228 5.98 23.0877 8.06 24.0702L7.02 27.5088L8.32 27.7544L9.1 24.5614C10.4 25.0526 11.44 25.0526 13 25.0526C14.56 25.0526 15.86 24.807 17.16 24.5614L18.2 28L19.5 27.7544L18.2 24.0702ZM19.76 4.17544C18.98 4.66667 18.46 4.91228 18.2 5.64912C17.42 6.38597 16.9 7.36842 16.64 8.59649L15.34 8.35088C15.6 6.87719 16.38 5.89474 17.16 4.91228C17.68 4.42105 18.2 3.92982 18.72 3.4386C17.16 2.45614 15.08 1.7193 13 1.7193C10.92 1.7193 9.1 2.45614 7.54 3.4386C8.32 3.68421 8.84 4.17544 9.36 4.91228C10.14 5.89474 10.66 6.87719 11.18 8.35088L9.88 8.59649C9.36 7.36842 8.84 6.38597 8.32 5.64912C7.8 4.91228 7.28 4.42105 6.5 4.17544L6.24 4.42105C4.68 5.89474 3.64 8.10526 3.38 10.3158H22.88C22.62 8.10526 21.58 5.89474 19.76 4.17544C19.76 4.42105 19.76 4.17544 19.76 4.17544Z" fill="#707C97"/>
</svg>
