<svg width="26" height="27" viewBox="0 0 26 27" fill="none" xmlns="http://www.w3.org/2000/svg">
<path d="M23.4737 19.9916H2.68769C1.84862 19.9916 1.16211 20.677 1.16211 21.5147C1.16211 22.3523 1.84862 23.0377 2.68769 23.0377H23.4737C24.3128 23.0377 24.9993 22.3523 24.9993 21.5147C24.9993 20.677 24.3128 19.9916 23.4737 19.9916Z" stroke="#707C97" stroke-width="1.71221" stroke-miterlimit="10" stroke-linecap="round" stroke-linejoin="round"/>
<path d="M13.1762 3.11107C13.1762 3.11107 10.2522 2.66685 6.94678 5.58603C3.64136 8.50521 3.70492 12.3128 3.70492 12.3128V17.5166C3.70492 17.5166 3.41252 19.395 2.07764 20.0804" stroke="#707C97" stroke-width="1.71221" stroke-miterlimit="10" stroke-linecap="round" stroke-linejoin="round"/>
<path d="M13.2651 3.11107C13.2651 3.11107 16.1892 2.66685 19.4946 5.58603C22.8 8.50521 22.7365 12.3128 22.7365 12.3128V17.5166C22.7365 17.5166 23.0289 19.395 24.3637 20.0804" stroke="#707C97" stroke-width="1.71221" stroke-miterlimit="10" stroke-linecap="round" stroke-linejoin="round"/>
<path d="M11.0786 3.26339C11.0786 2.1338 12.0321 1.20728 13.2144 1.20728C14.3968 1.20728 15.3502 2.1338 15.3502 3.26339" stroke="#707C97" stroke-width="1.71221" stroke-miterlimit="10" stroke-linecap="round" stroke-linejoin="round"/>
<path d="M17.092 23.1392C16.7615 24.7384 15.1469 25.9568 13.2018 25.9568C11.2439 25.9568 9.61666 24.7257 9.29883 23.1138" stroke="#707C97" stroke-width="1.71221" stroke-miterlimit="10" stroke-linecap="round" stroke-linejoin="round"/>
</svg>
