<svg width="24" height="31" viewBox="0 0 24 31" fill="none" xmlns="http://www.w3.org/2000/svg">
<path fill-rule="evenodd" clip-rule="evenodd" d="M14.9725 13.3169L15.4128 13.0986L15.1927 12.4437L13.211 12.662H12.5505L12.3303 12.007L12.1101 11.5704L7.92661 13.0986H7.70642H7.48624L6.6055 12.007H6.38532V11.7887L8.58716 0.65493L8.80734 0L9.24771 0.43662L18.2752 7.42254L18.4954 7.64084V7.85915V9.16901V9.38732H18.2752L14.0917 10.9155L15.633 10.6972H16.2936L16.5138 11.3521L16.9541 12.662L17.6147 12.4437L18.055 12.2254L18.2752 12.662L20.2569 18.1197L20.4771 18.5563H19.8165L17.3945 19.4296L16.9541 19.6479L16.7339 19.2113L14.7523 13.7535L14.5321 13.5352L14.9725 13.3169ZM0.66055 17.2465H0V17.9014V21.6127V22.2676V22.9225V25.9789V26.1972V26.8521V30.5634V31.2183H0.66055H11.4495H12.1101H12.7706H23.5596H24.2202V30.5634V26.1972V25.5423H23.5596H18.4954V21.831V21.3944H17.8349H12.5505V17.9014V17.2465H11.8899H0.66055ZM11.4495 18.338H1.10092V21.3944H5.72477H6.38532H7.04587H11.6697V18.338H11.4495ZM5.72477 22.7042V25.7606H1.10092V22.7042H5.72477ZM17.1743 22.7042V25.7606H12.5505H11.8899H11.4495H6.82569V22.7042H12.5505H17.1743ZM11.4495 26.8521V29.9084H1.10092V26.8521H5.72477H6.82569H11.4495ZM22.6789 26.8521V29.9084H12.5505V26.8521H18.4954H22.6789ZM11.8899 10.6972L10.789 7.85915L12.3303 7.20423L13.4312 10.0423L17.6147 8.51408V7.85915L9.46789 1.52817L7.26606 11.7887L7.70642 12.4437L11.8899 10.6972ZM17.3945 13.3169L15.633 13.9718L17.3945 18.5563L19.156 17.9014L17.3945 13.3169Z" fill="#707C97"/>
</svg>
