<svg width="25" height="25" viewBox="0 0 25 25" fill="none" xmlns="http://www.w3.org/2000/svg">
<path fill-rule="evenodd" clip-rule="evenodd" d="M9.68421 13.7739L4 19.6174L3.1579 18.7826L8.84211 13.1478L9.68421 13.7739ZM14.9474 10.0174L19.3684 5.63478L19.579 5.42609H19.7895L21.0526 5.84348L22.5263 3.33913L21.8947 2.71304L21.2632 2.08696L18.9474 3.54783L19.3684 4.8V5.0087L19.1579 5.21739L14.7368 9.8087L14.9474 10.0174ZM13.8947 8.97391L12 7.09565L10.9474 8.34783L11.7895 9.18261L10.1053 10.6435C9.68421 10.6435 9.47369 10.4348 9.05263 10.4348C8.42105 10.4348 7.78947 10.6435 7.1579 11.2696L1.05263 17.3217C0.631579 17.7391 0.421053 18.3652 0.421053 18.9913C0.421053 19.6174 0.631579 20.2435 1.26316 20.8696L3.78947 23.3739C4.21053 23.7913 4.84211 24.2087 5.68421 24.2087C6.31579 24.2087 6.94737 24 7.57895 23.3739L13.6842 17.3217C14.1053 16.9044 14.5263 16.2783 14.5263 15.4435C14.5263 15.0261 14.5263 14.6087 14.3158 14.4L16 12.7304L16.8421 13.5652L17.8947 12.313L15.7895 10.8522L20 6.67826L21.4737 7.09565H21.8947L22.1053 6.67826L24 3.54783L24.2105 3.13043L24 2.92174L22.9474 1.87826L21.8947 0.834783L21.6842 0.626087L21.2632 0.834783L17.8947 2.71304L17.6842 2.92174V3.33913L18.1053 4.5913L13.8947 8.97391ZM12.2105 14.8174L11.5789 14.4L12.2105 13.7739L13.8947 12.1043L12.4211 10.6435L10.7368 12.313L10.3158 12.9391L9.68421 12.313C9.47369 12.1043 9.26316 12.1043 9.05263 12.1043C8.84211 12.1043 8.63158 12.1043 8.42105 12.313L2.31579 18.3652C2.10526 18.5739 2.10526 18.7826 2.10526 18.9913C2.10526 19.2 2.10526 19.4087 2.31579 19.6174L4.84211 22.1217C5.05263 22.3304 5.26316 22.3304 5.47368 22.3304C5.68421 22.3304 5.89474 22.3304 6.10526 22.1217L12.2105 16.0696C12.4211 15.8609 12.4211 15.6522 12.4211 15.4435C12.4211 15.2348 12.4211 15.0261 12.2105 14.8174ZM19.3684 18.5739C19.7895 18.1565 20.4211 18.1565 20.8421 18.5739C21.2632 18.9913 21.2632 19.6174 20.8421 20.0348C20.4211 20.4522 19.7895 20.4522 19.3684 20.0348C18.9474 19.6174 18.9474 18.9913 19.3684 18.5739ZM1.47368 3.75652L4 6.05217L5.26316 5.21739L6.10526 3.96522L3.57895 1.46087L2.31579 0.208696L4.21053 0C5.47369 0 6.52632 0 7.57895 0.208696C8.63158 0.417391 9.68421 0.834783 10.7368 1.66957V1.87826C11.1579 2.50435 11.1579 3.13043 11.3684 3.75652C11.3684 4.38261 11.3684 5.0087 10.9474 5.63478L10.7368 6.05217L11.5789 6.88696L10.7368 7.72174L9.89474 6.88696C9.47369 7.51304 9.05263 7.93044 8.63158 8.34783C8.21053 8.76522 8 9.18261 7.36842 9.6L7.78947 10.0174L6.94737 10.6435L6.73684 10.2261C6.52632 10.4348 6.31579 10.6435 6.10526 10.6435C5.26316 11.0609 4.63158 11.2696 4 11.2696C3.36842 11.2696 2.73684 11.0609 2.10526 10.8522C1.05263 9.8087 0.631579 8.76522 0.210526 7.72174C0 6.67826 0 5.42609 0 4.38261V2.50435L1.47368 3.75652ZM3.1579 7.72174L3.57895 8.13913L4.21053 7.72174L6.31579 6.46957V6.26087V6.05217L7.57895 3.96522L8 3.33913L7.78947 3.13043L6.10526 1.66957C6.52632 1.66957 6.73684 1.66957 7.1579 1.87826C8 2.08696 8.63158 2.29565 9.26316 2.92174C9.47369 3.33913 9.47369 3.54783 9.47369 3.96522C9.47369 4.38261 9.47369 4.59131 9.26316 5.0087C9.26316 5.21739 9.26316 5.21739 9.05263 5.42609L5.89474 8.76522L5.68421 8.97391C5.47369 9.18261 5.26316 9.18261 5.05263 9.3913C4.84211 9.6 4.42105 9.6 4 9.6C3.57895 9.6 3.36842 9.6 2.94737 9.3913C2.52632 8.76522 2.10526 8.13913 1.89474 7.30435C1.89474 6.88696 1.68421 6.67826 1.68421 6.26087L3.1579 7.72174ZM18.1053 13.3565L22.5263 17.5304C23.1579 18.1565 23.3684 18.7826 23.3684 19.6174C23.3684 20.4522 23.1579 21.0783 22.5263 21.7043C21.8947 22.3304 21.2632 22.5391 20.4211 22.5391C19.5789 22.5391 18.9474 22.3304 18.3158 21.7043L14.1053 17.7391L14.7368 16.6957L19.1579 20.8696C19.579 21.287 20 21.287 20.4211 21.287C20.8421 21.287 21.2632 21.0783 21.6842 20.6609C22.1053 20.2435 22.1053 19.8261 22.1053 19.4087C22.1053 18.9913 21.8947 18.5739 21.4737 18.1565L17.2632 13.9826L18.1053 13.3565ZM11.3684 15.4435L10.5263 14.6087L4.84211 20.4522L5.68421 21.287L11.3684 15.4435Z" fill="#707C97"/>
</svg>
