<svg width="24" height="37" viewBox="0 0 24 37" fill="none" xmlns="http://www.w3.org/2000/svg">
<path fill-rule="evenodd" clip-rule="evenodd" d="M12.1348 5.89855L7.55056 15.2826L11.0562 16.087H11.8652L11.5955 16.8913L9.70786 23.5942L12.6742 24.9348L13.2135 25.2029L12.9438 25.7391L11.0562 30.8333L16.7191 23.8623L14.0225 21.9855L13.7528 21.7174L14.0225 21.1812L16.7191 13.942L12.4045 13.1377H11.8652V12.6014L12.1348 5.89855ZM14.5618 7.23913C16.7191 7.77536 18.8764 8.84783 20.4944 10.4565C22.6517 12.6014 24 15.5507 24 18.7681C24 21.9855 22.6517 24.9348 20.4944 27.0797C18.8764 28.6884 16.9888 29.7609 15.1011 30.2971L16.1798 27.8841C17.2584 27.3478 18.0674 26.8116 18.8764 26.0072C20.764 24.1304 22.1124 21.7174 22.1124 18.7681C22.1124 16.087 21.0337 13.4058 19.1461 11.7971C17.7978 10.4565 16.4494 9.65217 14.5618 9.11594V7.23913ZM9.16854 30.2971C7.01124 29.7609 5.1236 28.6884 3.50562 27.0797C1.34831 25.2029 0 22.2536 0 18.7681C0 15.5507 1.34831 12.6014 3.50562 10.4565C4.85393 9.11594 6.74157 8.04348 8.62921 7.50725L7.55056 9.92029C6.47191 10.4565 5.66292 10.9928 4.85393 11.7971C2.96629 13.6739 1.88764 16.087 1.88764 18.7681C1.88764 21.4493 2.96629 24.1304 4.85393 25.7391C6.20225 27.0797 7.82022 28.1522 9.70786 28.4203L9.16854 30.2971ZM6.20225 15.5507L12.4045 2.68116L13.4831 0V2.94928L13.2135 11.7971L17.2584 12.6014L18.0674 12.8696L17.7978 13.6739L15.1011 21.1812L18.3371 23.3261L18.8764 23.5942L18.3371 24.1304L9.97753 34.3188L7.82023 37L8.89888 33.7826L11.5955 26.0072L8.62921 24.6667L8.08989 24.3986L8.35955 23.8623L10.2472 17.1594L6.47191 16.3551L5.66292 16.087L6.20225 15.5507Z" fill="#707C97"/>
</svg>
