<svg width="24" height="25" viewBox="0 0 24 25" fill="none" xmlns="http://www.w3.org/2000/svg">
<path fill-rule="evenodd" clip-rule="evenodd" d="M2.23729 7.43802L9.76271 12.3967L10.3729 12.8099L9.76271 13.2231L2.84746 19.0083L2.44068 19.4215L2.0339 18.8017C0.813559 17.1488 0 15.0826 0 13.2231C0 11.3636 0.40678 9.50413 1.42373 7.43802L1.62712 7.02479L2.23729 7.43802ZM13.0169 2.47934C12.6102 2.47934 12.4068 2.47934 12 2.47934C11.5932 2.47934 11.3898 2.47934 10.9831 2.68595L10.1695 2.89256L10.3729 3.71901L12.2034 13.4298L4.47458 19.6281L3.66102 20.0413L4.27119 20.6612C5.28814 21.9008 6.71186 23.1405 8.13559 23.7603C9.55932 24.5868 11.1864 24.7934 13.0169 24.7934C16.0678 24.7934 18.9153 23.5537 20.7458 21.4876C22.7797 19.4215 24 16.7355 24 13.6364C24 10.5372 22.7797 7.64463 20.7458 5.78512C18.7119 3.71901 16.0678 2.47934 13.0169 2.47934ZM19.5254 7.02479C17.8983 5.16529 15.4576 4.13223 13.0169 4.13223C12.6102 4.13223 12.4068 4.13223 12 4.13223L13.6271 13.6364V14.0496L13.4237 14.2562L6.1017 20.2479C6.91525 21.0744 7.9322 21.9008 8.94915 22.314C10.1695 22.9339 11.5932 23.3471 13.0169 23.3471C15.661 23.3471 17.8983 22.314 19.7288 20.4545C21.3559 18.8017 22.5763 16.3223 22.5763 13.6364C22.3729 11.157 21.3559 8.67769 19.5254 7.02479ZM3.05085 4.33884L9.35593 8.67768L7.52542 1.23967C6.71186 1.65289 5.89831 2.06612 5.08475 2.47934C4.27119 3.09917 3.66102 3.71901 3.05085 4.33884ZM9.76271 10.3306L10.7797 11.157L10.5763 9.91736L8.54237 0.619835L8.33898 0L7.9322 0.206612C6.50847 0.413223 5.49153 1.03306 4.47458 1.65289C3.45763 2.27273 2.64407 3.09917 1.83051 4.13223L1.42373 4.75207L1.83051 5.16529L9.76271 10.3306ZM2.0339 16.7355L7.32203 11.9835L6.71186 11.5702L1.62712 16.1157C1.83051 16.3223 1.83051 16.5289 2.0339 16.7355ZM7.9322 12.6033L2.44068 17.562C2.44068 17.7686 2.64407 17.7686 2.64407 17.9752L8.54237 13.0165L7.9322 12.6033ZM6.1017 11.157L5.49153 10.7438L1.22034 14.4628C1.22034 14.6694 1.42373 14.876 1.42373 15.2893L6.1017 11.157ZM4.67797 10.3306L4.27119 10.124L1.01695 12.8099C1.01695 13.0165 1.01695 13.0165 1.01695 13.2231C1.01695 13.4298 1.01695 13.4298 1.01695 13.6364L4.67797 10.3306ZM3.66102 9.50413L3.25424 9.29752L1.22034 10.9504C1.22034 11.157 1.22034 11.3636 1.01695 11.7769L3.66102 9.50413ZM2.64407 8.8843L2.23729 8.67768C2.0339 8.8843 1.83051 9.29752 1.83051 9.50413L2.64407 8.8843Z" fill="#707C97"/>
</svg>
