<svg width="196" height="157" viewBox="0 0 196 157" fill="none" xmlns="http://www.w3.org/2000/svg">
    <g clip-path="url(#clip0)">
        <path d="M68.0109 116.615C67.5271 116.616 67.1507 116.565 66.8281 116.513C66.2366 116.409 65.8598 116.2 65.5903 115.834C65.3207 115.467 64.9974 115.101 64.674 114.682C64.4584 114.421 64.4042 114.211 64.4576 114.001C64.5109 113.791 64.5105 113.634 64.4029 113.582C64.1334 113.216 64.0251 112.849 64.0243 112.482C64.0773 112.115 64.0765 111.748 64.1294 111.328C64.1827 111.118 64.2359 110.856 64.2893 110.699C64.3426 110.489 64.3959 110.279 64.4492 110.069C64.5022 109.702 64.4478 109.388 64.2861 109.178C64.0706 108.969 64.0163 108.707 64.0694 108.392C64.3883 106.661 64.8144 104.826 65.3478 102.832C65.8811 100.839 66.3608 98.8979 66.8407 97.0619C66.9474 96.6423 67.1615 96.2224 67.4296 95.9073C67.6977 95.5921 67.9121 95.2771 67.9116 95.0674C67.9116 95.0674 70.8671 94.5893 71.1382 95.6898C71.355 96.5282 70.6578 97.2636 70.4983 98.1028C70.4452 98.4175 70.2309 98.7849 69.9092 99.1526C69.5875 99.5727 69.3734 99.9926 69.3207 100.465C69.1077 101.461 68.8412 102.51 68.5209 103.56C68.2006 104.609 67.9339 105.605 67.7211 106.654C67.6681 107.022 67.615 107.336 67.562 107.703C67.5089 108.018 67.456 108.385 67.4029 108.7C67.3495 108.857 67.3498 109.015 67.2964 109.172C67.2429 109.329 67.1895 109.487 67.1898 109.644C67.1369 110.011 67.1913 110.326 67.4069 110.587C67.2998 110.797 67.2465 111.007 67.1931 111.164C67.1932 111.217 67.1934 111.322 67.1938 111.531C67.1943 111.741 67.2484 111.898 67.2488 112.108C67.2493 112.318 67.3035 112.527 67.3575 112.685C67.3578 112.789 66.9836 113.786 68.8119 114.097C68.8119 114.097 70.3205 115.719 69.139 116.246C68.0109 116.615 68.0109 116.615 68.0109 116.615Z"
              fill="#00BBC4"/>
        <path d="M51.9159 106.216C51.862 106.164 51.8618 106.059 51.8616 105.954C51.9148 105.692 52.0215 105.324 52.1818 104.852C52.342 104.38 52.556 103.855 52.77 103.383C52.9839 102.858 53.1443 102.439 53.3584 102.019C53.5188 101.599 53.6795 101.336 53.7329 101.179C53.8935 100.864 54.0003 100.549 54.1612 100.339C54.2682 100.129 54.4291 99.9193 54.5361 99.7094C54.6969 99.4993 54.8579 99.3417 55.019 99.2889C55.0189 99.2365 55.1796 98.974 55.4473 98.4492C55.715 97.9243 56.0363 97.3469 56.4113 96.7694C56.7863 96.1395 57.1615 95.6144 57.5905 95.1417C58.0195 94.6689 58.3416 94.4585 58.6105 94.5104C58.7719 94.5625 58.9332 94.5621 59.1484 94.6665C59.3635 94.7185 59.5249 94.7706 59.6863 94.8227C59.9014 94.8747 60.1701 94.8217 60.4385 94.6638C60.707 94.506 60.8682 94.5056 60.8684 94.6105C60.9763 94.7676 61.0839 94.8198 61.2453 94.8718C61.5679 94.9236 61.8367 94.923 62.2129 94.8698C62.5353 94.8167 62.8578 94.816 63.1805 94.8678C63.288 94.8675 63.3956 94.9198 63.5033 95.0244C63.6109 95.0766 63.7186 95.1288 63.8262 95.181C63.9337 95.1808 64.0412 95.1805 64.1486 95.1279C64.3094 94.9178 64.4169 94.9176 64.4707 94.9175L64.5782 94.9173C64.8477 95.2837 65.1171 95.5453 65.3322 95.5972C65.5474 95.7016 65.8163 95.7535 66.1927 95.8051L66.3541 95.8572C66.623 95.9091 66.8921 96.0658 67.1614 96.3274C67.4307 96.589 67.7002 96.903 67.9159 97.2171C68.1315 97.5312 68.2936 97.8979 68.4018 98.2122C68.51 98.579 68.5643 98.841 68.5111 99.1033C68.5113 99.1557 68.4576 99.2082 68.4577 99.2606C68.4578 99.3131 68.4042 99.3656 68.4043 99.418C68.3513 99.7852 68.4059 100.152 68.568 100.571C68.7302 100.99 68.7847 101.357 68.6781 101.777C68.6783 101.882 68.6246 101.934 68.5171 101.934C68.4096 101.935 68.3022 101.987 68.2485 101.987C68.141 101.988 68.0336 102.04 67.9262 102.093C67.8188 102.146 67.7654 102.355 67.7122 102.618L67.6062 103.299C67.5528 103.457 67.553 103.562 67.5533 103.719C67.5535 103.824 67.5001 103.981 67.3929 104.139C67.4469 104.243 67.5009 104.348 67.5549 104.453C67.6088 104.558 67.6628 104.662 67.6094 104.82C67.6096 104.925 67.556 104.977 67.5022 104.977C67.4486 105.03 67.395 105.135 67.3416 105.292C67.3417 105.345 67.3419 105.45 67.3421 105.502C67.3423 105.607 67.3424 105.659 67.3425 105.712C67.2892 105.922 67.1821 106.131 66.9673 106.237C66.7525 106.342 66.5915 106.447 66.5378 106.5C66.4842 106.552 66.4303 106.5 66.3764 106.395C66.3224 106.291 66.2684 106.186 66.2146 106.186C66.1609 106.186 66.1073 106.239 66.0537 106.344C66.0002 106.449 66.0003 106.501 65.9463 106.396C65.9468 106.606 65.9472 106.816 65.9476 107.025C65.9481 107.235 65.8948 107.445 65.8415 107.655C65.7882 107.865 65.7347 108.022 65.6276 108.179C65.5204 108.337 65.4133 108.547 65.3062 108.757C65.2528 108.914 65.2532 109.071 65.1998 109.281C65.1465 109.491 65.0932 109.701 65.0399 109.911C64.9866 110.121 64.9333 110.33 64.8799 110.488C64.8264 110.645 64.7729 110.75 64.6654 110.75C64.4506 110.856 64.2898 111.066 64.1292 111.381C63.9686 111.696 63.8616 111.958 63.7548 112.273C63.6479 112.588 63.541 112.85 63.3802 113.06C63.2731 113.27 63.112 113.375 62.9508 113.375C62.897 113.376 62.8432 113.323 62.7357 113.323C62.6818 113.271 62.5743 113.271 62.4668 113.272C62.199 113.744 61.9849 114.164 61.8243 114.479C61.6099 114.794 61.4491 115.004 61.2883 115.214C61.1274 115.424 60.9129 115.634 60.6982 115.792C60.4835 115.95 60.2152 116.16 60.0007 116.423C59.5708 116.476 59.1946 116.529 58.9797 116.582C58.711 116.635 58.4959 116.583 58.2271 116.584C58.0658 116.531 57.8506 116.479 57.6891 116.375C57.5278 116.323 57.3666 116.376 57.2592 116.428C57.0981 116.481 56.9369 116.534 56.8293 116.482C56.3991 116.43 56.0762 116.221 55.8604 115.855C55.6447 115.54 55.3755 115.331 55.1066 115.279C54.4068 114.809 53.8141 114.181 53.3822 113.291C52.9503 112.4 52.5723 111.615 52.2482 110.829C52.3016 110.672 52.2473 110.41 52.2466 110.095C52.1921 109.728 52.1375 109.361 52.0829 108.942C52.0283 108.523 51.9737 108.156 51.9192 107.789C51.8647 107.422 51.8641 107.16 51.9174 106.95C51.9173 106.898 51.9709 106.793 52.0244 106.688C52.0779 106.583 52.0777 106.478 52.0777 106.478L51.9159 106.216ZM53.3197 109.149C53.3728 108.834 53.3186 108.625 53.1036 108.625L52.9962 108.678C52.9428 108.835 52.9431 108.993 52.9433 109.097C52.9435 109.202 53.0512 109.254 53.32 109.306L53.3197 109.149ZM54.8187 106.262C54.8186 106.21 54.8186 106.21 54.8723 106.157C54.8722 106.105 54.8722 106.105 54.9259 106.105L54.9796 106.052C54.9793 105.947 54.9791 105.843 54.9253 105.79L54.8714 105.738C54.8176 105.738 54.7639 105.738 54.6565 105.791C54.5491 105.843 54.4954 105.896 54.4956 105.948C54.4957 106.001 54.5495 106.053 54.6034 106.105C54.7649 106.21 54.8187 106.262 54.8187 106.262ZM55.6233 105.422C55.6231 105.317 55.623 105.264 55.5152 105.16L55.4623 105.527L55.6233 105.422ZM55.573 107.047C55.7881 107.099 55.9493 107.046 56.0028 106.941C56.0563 106.836 56.0562 106.784 56.1637 106.784C56.0558 106.574 56.0018 106.47 56.0018 106.47C55.948 106.47 55.8943 106.47 55.787 106.575C55.7334 106.627 55.5723 106.733 55.411 106.733L55.573 107.047ZM54.4568 113.026C54.4566 112.974 54.5103 112.921 54.5642 112.974L54.4566 112.974L54.4563 112.817C54.4565 112.921 54.4028 112.922 54.2953 112.922L54.1878 112.922L54.4568 113.026ZM56.4826 105.053C56.536 104.896 56.5358 104.791 56.5894 104.738C56.6431 104.686 56.5355 104.633 56.3203 104.581C56.3204 104.634 56.2669 104.739 56.2671 104.844C56.2136 104.949 56.2676 105.053 56.4291 105.158L56.4828 105.158L56.4826 105.053ZM55.7905 108.253C55.8443 108.252 55.8981 108.252 55.8979 108.2L55.8978 108.147C55.9515 108.095 55.9514 108.043 55.8975 107.99C55.8436 107.938 55.8435 107.885 55.8972 107.833C55.79 107.99 55.7363 108.043 55.7362 107.991C55.7361 107.938 55.6825 107.991 55.6827 108.095C55.6828 108.148 55.6829 108.2 55.7367 108.2L55.7905 108.253ZM64.3342 106.662C64.3875 106.452 64.4409 106.242 64.4942 106.032C64.5476 105.875 64.6009 105.665 64.6006 105.508C64.6539 105.298 64.5996 105.036 64.4914 104.722C64.3833 104.46 64.3291 104.25 64.3827 104.145C64.3824 104.04 64.4897 103.935 64.6507 103.777C64.8116 103.62 64.9187 103.41 64.972 103.2C65.0784 102.676 65.0773 102.151 65.0762 101.627C65.0213 101.103 65.0204 100.683 65.1273 100.369C65.127 100.264 65.1266 100.054 65.0183 99.6873C64.91 99.3205 64.748 98.9539 64.5858 98.5348C64.4237 98.1157 64.2079 97.7492 63.9383 97.3827C63.6688 97.0163 63.4534 96.8595 63.1845 96.8076C63.0232 96.7555 62.7545 96.8085 62.4321 96.8616C62.1097 96.9147 61.8409 96.9153 61.6796 96.9156C61.6259 96.9158 61.5721 96.9159 61.572 96.8634L61.5182 96.8111C61.3568 96.759 61.0347 96.9694 60.6053 97.2849C60.1761 97.6528 59.747 98.1256 59.2646 98.7557C58.7821 99.3859 58.3535 100.068 57.9788 100.803C57.5504 101.59 57.2833 102.377 57.1774 103.164C57.1243 103.479 57.0712 103.793 56.9645 104.161C56.9114 104.475 56.8584 104.842 56.9129 105.157C56.8067 105.786 56.7004 106.363 56.6476 106.835C56.5949 107.307 56.5958 107.727 56.5966 108.146C56.5974 108.513 56.5983 108.932 56.5991 109.299C56.5999 109.666 56.6544 110.033 56.6015 110.453C56.6556 110.61 56.7636 110.819 56.9255 111.134C57.0874 111.448 57.2492 111.71 57.4112 112.024C57.573 112.286 57.7886 112.547 58.0041 112.809C58.2196 113.018 58.4349 113.175 58.6501 113.227C58.8652 113.279 59.1874 113.121 59.6169 112.858C60.0463 112.543 60.4219 112.227 60.8509 111.755C61.2801 111.334 61.6554 110.862 62.0308 110.441C62.406 109.969 62.6203 109.601 62.7809 109.286C62.995 108.867 63.209 108.394 63.4768 107.922C63.5833 107.45 63.9587 107.03 64.3342 106.662ZM66.5281 101.886C66.5279 101.781 66.5816 101.781 66.6354 101.781L66.7429 101.781L66.5814 101.676L66.5281 101.886ZM67.3928 104.086C67.2856 104.244 67.2319 104.244 67.178 104.192C67.1242 104.139 67.0705 104.192 67.0707 104.297C67.071 104.402 67.1249 104.506 67.2862 104.506L67.3393 104.191L67.3928 104.086Z"
              fill="#00BBC4"/>
        <path d="M29.0082 102.069C29.0089 102.384 28.9558 102.699 28.9025 102.909C28.8493 103.171 28.7959 103.381 28.7965 103.643C28.7966 103.695 28.7967 103.748 28.7968 103.8C28.7969 103.852 28.7971 103.905 28.7972 103.957C28.7975 104.115 28.6907 104.429 28.4231 105.007C28.1554 105.532 28.049 106.056 28.0501 106.58C28.0505 106.738 28.1046 106.895 28.1586 107.052C28.2127 107.209 28.2668 107.366 28.2673 107.576C28.2675 107.681 28.2678 107.838 28.268 107.943C28.2683 108.048 28.2686 108.205 28.2689 108.362C28.2691 108.467 28.2693 108.52 28.2695 108.625C28.2697 108.729 28.2698 108.782 28.27 108.887C28.2704 109.044 28.2169 109.201 28.1635 109.359C28.0031 109.779 27.8966 110.251 27.8439 110.723C27.7911 111.195 27.7384 111.667 27.6856 112.138C27.6326 112.506 27.6336 112.977 27.5811 113.554C27.5284 114.079 27.4221 114.656 27.2619 115.128C27.1017 115.652 26.8876 116.072 26.5658 116.44C26.2441 116.808 25.8681 116.966 25.3306 116.967C24.5777 116.811 24.0937 116.707 23.7173 116.656C23.3946 116.604 23.1256 116.5 22.9642 116.395C22.8027 116.291 22.6947 116.081 22.6404 115.819C22.5861 115.557 22.4777 115.138 22.3153 114.614C22.2614 114.509 22.2609 114.299 22.2605 114.09C22.259 113.408 22.2038 112.727 22.095 112.098C21.9862 111.469 21.931 110.787 21.9295 110.106C21.9292 109.949 21.9826 109.791 22.0899 109.686C22.1972 109.581 22.2506 109.424 22.2503 109.266C22.2499 109.109 22.1959 108.952 22.0881 108.847C22.0878 108.69 22.0337 108.533 22.0334 108.376C22.0325 107.956 22.1931 107.641 22.4613 107.378C22.7295 107.116 22.8901 106.801 22.8892 106.381C22.889 106.277 22.8888 106.172 22.8886 106.067C22.8883 105.962 22.8881 105.857 22.8879 105.752C22.8876 105.595 22.941 105.438 23.1019 105.28C23.2629 105.122 23.3163 104.965 23.316 104.808C23.3157 104.703 23.2618 104.598 23.1539 104.441C22.7766 103.97 22.6143 103.446 22.6129 102.817C22.6114 102.083 22.7173 101.349 22.9309 100.667C23.1445 99.9847 23.2505 99.2504 23.2489 98.5164C23.2481 98.1495 23.3545 97.6249 23.568 96.8905C23.7815 96.1561 23.9947 95.3167 24.2615 94.3725C24.5283 93.4282 24.7411 92.3792 24.9538 91.2777C25.1125 90.0716 25.2177 88.9703 25.2152 87.8169C25.2146 87.5024 25.1065 87.2404 24.8373 87.0313C24.5681 86.8222 24.4601 86.6127 24.4594 86.2981C24.4588 85.9835 24.5658 85.7736 24.7804 85.5634C24.9951 85.4057 25.2099 85.3004 25.4786 85.2474C25.6936 85.2469 25.9086 85.2465 26.0699 85.2461C26.2849 85.2457 26.4462 85.2453 26.6613 85.2973C26.9838 85.2966 27.1993 85.5059 27.4152 85.9249C27.6311 86.3438 27.7934 86.8154 27.9021 87.3918C28.0107 87.9159 28.1194 88.4924 28.1744 89.069C28.2294 89.6456 28.2841 90.1173 28.3385 90.4318C28.3398 91.0085 28.2873 91.6377 28.1813 92.3195C28.0751 92.9489 28.0227 93.5781 28.024 94.2073C28.0242 94.3121 28.0782 94.4169 28.1859 94.5215C28.2937 94.6261 28.3475 94.6784 28.4013 94.6783C28.6163 94.6779 28.7235 94.5204 28.7766 94.2057C28.8296 93.891 28.8826 93.5239 28.9355 93.1044C28.9884 92.6848 29.1489 92.3175 29.3093 91.9502C29.5236 91.5827 29.8993 91.3198 30.4366 91.2138C30.3823 90.9518 30.382 90.7945 30.3279 90.6373C30.2738 90.4801 30.2735 90.3228 30.273 90.1131C30.2728 90.0083 30.3263 89.8509 30.4332 89.5885C30.5402 89.3261 30.6471 89.0638 30.8078 88.8013C30.9685 88.5388 31.1291 88.2239 31.3436 87.9613C31.5581 87.6987 31.7188 87.4362 31.9335 87.2785C32.0408 87.1734 32.1479 87.0159 32.2015 86.9109C32.2549 86.7535 32.3084 86.6486 32.3618 86.4912C32.4153 86.3338 32.4687 86.1764 32.5222 86.0714C32.5756 85.914 32.7366 85.7564 33.0051 85.651C33.0588 85.5984 33.1123 85.4935 33.273 85.231C33.4337 84.9685 33.5944 84.706 33.8088 84.391C34.0231 84.076 34.2913 83.7608 34.6668 83.3931C35.042 82.9204 35.4178 82.6575 35.8474 82.4469C36.0084 82.3417 36.1695 82.2365 36.2766 82.079C36.3838 81.9214 36.491 81.7639 36.5983 81.6589C36.7055 81.5013 36.8664 81.3437 37.0274 81.2385C37.1885 81.1333 37.3496 81.0806 37.5646 81.0801C37.7259 81.0798 37.8871 81.027 38.0482 80.9742C38.2094 80.9215 38.3167 80.8164 38.4777 80.7112C38.6387 80.606 38.7998 80.5008 39.0684 80.4478C39.2834 80.3949 39.6058 80.3418 39.9821 80.341C40.4121 80.3401 40.7348 80.4443 40.9502 80.6011C41.1655 80.758 41.4345 80.8623 41.7571 80.8616C41.9721 80.8611 42.1335 80.9132 42.2948 80.9653C42.4562 81.0174 42.5104 81.227 42.511 81.4891C42.5111 81.5416 42.5113 81.6464 42.4577 81.699C42.4041 81.8039 42.4042 81.8564 42.3506 81.9089C42.3508 82.0137 42.4047 82.0661 42.5122 82.0658C42.6197 82.0656 42.6733 82.0131 42.6731 81.9082C42.6193 81.8559 42.6191 81.8035 42.5653 81.7512C42.5114 81.6988 42.5113 81.6464 42.4574 81.5941C42.996 82.0648 43.32 82.7457 43.4831 83.6366C43.6462 84.5276 43.7555 85.3662 43.7572 86.1526C43.7581 86.5721 43.6516 87.0441 43.4375 87.5164C43.2235 87.9887 43.0634 88.5134 43.0107 89.0378C43.011 89.195 42.9575 89.3 42.8502 89.4051C42.7429 89.5102 42.5819 89.6154 42.4746 89.7205C42.3136 89.8256 42.2064 89.9832 42.0992 90.1407C41.992 90.2982 41.9387 90.508 41.8854 90.7178C41.8322 90.9801 41.6714 91.1901 41.4567 91.3479C41.1883 91.5057 41.0812 91.7157 41.082 92.0827C41.0824 92.2924 41.029 92.4498 40.9217 92.5549C40.8144 92.6599 40.6534 92.7651 40.4922 92.8179C40.3311 92.8707 40.17 92.9759 40.0626 93.0285C39.9553 93.1336 39.9019 93.291 39.9022 93.4483C39.9026 93.6056 40.0103 93.7102 40.2256 93.8146C40.4408 93.919 40.6022 93.9711 40.7634 93.9708C41.0322 93.9702 41.2471 93.9173 41.5158 93.8643C41.7844 93.8113 41.9993 93.7584 42.2681 93.7579C42.5369 93.7573 42.8595 93.8091 43.3434 93.8605C43.8273 93.9119 44.3115 94.0681 44.7955 94.172C45.2796 94.3282 45.71 94.4846 46.0867 94.6935C46.4634 94.9025 46.6789 95.1117 46.7332 95.3738C46.7873 95.5309 46.8415 95.7405 47.0032 95.9499C47.1649 96.1593 47.3265 96.3162 47.4882 96.5256C47.6498 96.6825 47.8652 96.8394 48.0804 96.9438C48.2956 97.0482 48.457 97.1003 48.6183 97.0999C48.7258 97.0997 48.9407 97.0468 49.1555 96.9415C49.424 96.8361 49.6388 96.7308 49.9074 96.6254C50.1759 96.5199 50.4445 96.4145 50.713 96.3091C50.9816 96.2037 51.1965 96.1508 51.3578 96.1504C51.6265 96.1499 51.8419 96.3067 52.0576 96.6208C52.2195 96.9351 52.3276 97.197 52.3281 97.4591C52.3287 97.7213 52.2755 97.9835 52.1147 98.1936C51.9538 98.4036 51.7929 98.5612 51.6318 98.614C51.2558 98.7721 50.88 98.9826 50.6117 99.2453C50.3435 99.508 49.9676 99.6661 49.5914 99.7193C49.3232 99.982 49.1624 100.192 48.9479 100.455C48.7872 100.717 48.6802 100.979 48.681 101.346C48.6827 102.133 48.5766 102.815 48.3628 103.392C48.149 103.969 48.0428 104.598 48.0441 105.228C48.0444 105.332 48.0445 105.385 48.0447 105.49C48.0448 105.542 48.045 105.647 48.0453 105.752C48.0461 106.171 47.8859 106.643 47.618 107.063C47.3501 107.483 47.1896 107.851 47.1903 108.165C47.1904 108.218 47.1906 108.323 47.2446 108.427C47.2986 108.532 47.2988 108.637 47.299 108.742C47.2992 108.847 47.2459 109.056 47.1392 109.424C47.0323 109.738 46.9256 110.106 46.7651 110.473C46.6046 110.84 46.4441 111.208 46.2835 111.523C46.1229 111.838 45.9622 112.1 45.8013 112.258C45.7475 112.258 45.694 112.363 45.5868 112.52C45.4796 112.678 45.3726 112.888 45.2656 113.15C45.1587 113.412 45.0516 113.622 44.9446 113.885C44.8377 114.147 44.7845 114.409 44.7312 114.619C44.7317 114.881 44.571 115.144 44.249 115.407C43.9271 115.669 43.7127 115.984 43.5521 116.299C43.3383 116.877 42.9631 117.402 42.4266 117.875C41.89 118.348 41.4611 118.873 41.086 119.45C40.8718 119.818 40.6035 120.028 40.3348 120.081C40.0124 120.134 39.7977 120.292 39.5832 120.554C39.5296 120.607 39.3149 120.765 38.9392 121.028C38.5636 121.343 38.0262 121.449 37.3274 121.45C36.8974 121.451 36.5746 121.347 36.3054 121.138C36.0362 120.929 35.7133 120.772 35.2831 120.668C34.7455 120.669 34.261 120.303 33.7756 119.57C33.2903 118.838 33.0732 117.842 33.0703 116.479C33.0693 116.007 33.1219 115.482 33.282 114.905C33.442 114.328 33.6021 113.751 33.8695 113.122C34.1369 112.492 34.3507 111.915 34.6721 111.337C34.9396 110.76 35.261 110.235 35.5288 109.763C36.1183 108.923 36.6542 108.135 37.19 107.295C37.7259 106.508 38.2618 105.72 38.7978 104.985C39.3338 104.25 39.9773 103.514 40.5671 102.832C41.2108 102.149 41.9082 101.518 42.767 100.887C43.0354 100.729 43.3039 100.571 43.5721 100.309C43.8942 100.098 44.1625 99.888 44.4307 99.6253C44.699 99.415 44.9136 99.2049 45.1282 98.9947C45.289 98.7846 45.3961 98.5747 45.3958 98.4174C45.2861 97.4215 44.9084 96.7407 44.2627 96.4275C43.617 96.1143 42.9177 95.9061 42.1649 95.8028C41.3586 95.8045 40.6064 95.9634 39.9619 96.2269C39.3174 96.4904 38.7267 96.8062 38.1901 97.2267C37.6534 97.6473 37.1167 98.0678 36.634 98.5407C36.1512 99.0136 35.6684 99.4864 35.1856 99.9593C34.9173 100.222 34.5955 100.537 34.2738 100.957C33.9522 101.377 33.5768 101.798 33.2014 102.218C32.826 102.638 32.4505 103.006 32.1285 103.269C31.8067 103.584 31.4843 103.69 31.2156 103.69C30.893 103.691 30.6242 103.639 30.4626 103.482C30.301 103.325 30.1394 103.168 29.9778 103.011C29.8162 102.854 29.7082 102.645 29.6004 102.488C29.3848 102.226 29.2233 102.121 29.0082 102.069C29.0614 101.807 29.1146 101.545 29.1678 101.283C29.221 101.02 29.2742 100.758 29.3274 100.496C29.6493 100.181 30.0249 99.8653 30.4006 99.6024C30.7763 99.3395 31.152 99.0241 31.5276 98.7087C31.8494 98.3935 32.1715 98.1831 32.5474 97.9726C32.8695 97.7622 33.2453 97.5517 33.5673 97.2889C33.8892 97.0261 34.3186 96.7106 34.7479 96.3427C35.1771 95.9748 35.6598 95.4495 36.1423 94.8193C36.3568 94.5567 36.5712 94.2941 36.8932 94.0313C37.1614 93.7686 37.4296 93.5059 37.698 93.2956C37.9662 93.0329 38.1807 92.7703 38.3952 92.5602C38.6097 92.2976 38.7166 92.0352 38.7698 91.773C38.8768 91.5106 39.0377 91.353 39.3062 91.1951C39.5746 91.0373 39.7354 90.8272 39.7348 90.5126C39.7341 90.1981 39.6798 89.936 39.6254 89.6216C39.5711 89.3596 39.5168 89.0975 39.4625 88.8355C39.7298 88.1534 39.9434 87.4714 40.2107 86.7892C40.478 86.1071 40.584 85.3729 40.5823 84.5865C40.5817 84.2719 40.5272 83.9574 40.4189 83.5382C40.3105 83.119 40.095 82.9098 39.665 82.9107C39.3424 82.9114 38.8589 83.0172 38.3218 83.2281C37.7309 83.439 37.3012 83.5972 36.979 83.7552C36.549 83.7561 36.2804 83.8615 36.1197 84.124C35.959 84.3865 35.8519 84.5964 35.7986 84.8062L35.8522 84.7537C35.4764 84.9642 35.1007 85.2271 34.7252 85.5949C34.4034 85.9626 34.0275 86.1207 33.7049 86.1214C33.3287 86.1221 33.1676 86.2273 33.1679 86.3846C33.1682 86.4895 33.1684 86.5943 33.2224 86.6991C33.2763 86.8038 33.2766 86.9087 33.2768 87.0135C33.2773 87.2757 33.2778 87.4854 33.2246 87.7476C33.1714 88.0099 33.0642 88.1674 32.7958 88.3253C32.6884 88.3779 32.6349 88.5353 32.6356 88.8499C32.6362 89.112 32.583 89.3743 32.476 89.6366L32.5298 89.6365C32.3687 89.7417 32.2077 89.8469 32.2081 90.0566C32.1547 90.214 32.1014 90.4239 32.1018 90.6336C32.0485 90.8434 31.9951 91.0008 31.9418 91.2106C31.8885 91.4204 31.7275 91.5781 31.5127 91.6834C31.3517 91.7886 31.2444 91.8936 31.191 92.051C31.1376 92.2084 31.0304 92.366 30.9768 92.4709C30.9234 92.6283 30.8162 92.7858 30.709 92.8909C30.6018 93.0484 30.4406 93.1012 30.2796 93.2064C30.1194 93.731 30.0666 94.1505 30.0674 94.57C30.068 94.8321 30.1223 95.0941 30.2304 95.3561C30.3385 95.6704 30.3927 95.88 30.3931 96.0373C30.3934 96.1946 30.3401 96.4044 30.2333 96.7192C30.1264 97.034 29.9655 97.1916 29.8044 97.2968C29.8043 97.2444 29.8042 97.1919 29.8041 97.1395C29.804 97.0871 29.7501 97.0348 29.6425 96.9826C29.5888 96.9827 29.5351 97.0352 29.5353 97.1401C29.5892 97.1924 29.6968 97.2446 29.8044 97.2968C29.8047 97.4017 29.8049 97.5065 29.8051 97.6114C29.8053 97.7162 29.8054 97.7687 29.8057 97.8735C29.8059 97.9784 29.8061 98.0832 29.8601 98.188C29.914 98.2927 29.9143 98.3976 29.9145 98.5024C29.9153 98.8694 29.8085 99.2366 29.5405 99.6042C29.2725 99.9718 29.166 100.444 29.1672 101.021C29.1676 101.178 29.168 101.388 29.2222 101.597C29.0074 101.702 29.0079 101.912 29.0082 102.069ZM32.3146 89.5846C32.3684 89.5844 32.3683 89.532 32.3682 89.4796L32.422 89.5319C32.3683 89.532 32.3683 89.532 32.3146 89.5846ZM35.6911 84.8065C35.7986 84.8062 35.8525 84.8586 35.8526 84.911C35.8527 84.9634 35.8527 84.9634 35.7989 84.9635C35.7452 84.9636 35.7451 84.9112 35.6911 84.8065ZM43.7945 103.821C43.4729 104.241 43.0972 104.504 42.5599 104.662C42.5063 104.715 42.4525 104.715 42.4525 104.715C42.4525 104.715 42.4526 104.767 42.3989 104.768C41.8627 105.398 41.3803 106.08 40.8441 106.711C40.3079 107.341 39.7717 107.971 39.2893 108.654C39.1286 108.916 38.8069 109.284 38.4319 109.914C38.0568 110.491 37.6282 111.174 37.2536 111.961C36.8789 112.696 36.5581 113.535 36.2374 114.375C35.9704 115.214 35.8109 116.054 35.8125 116.84C35.8132 117.154 35.8676 117.469 35.922 117.783C35.9765 118.098 36.1918 118.255 36.5143 118.254C36.7831 118.253 36.998 118.201 37.2667 118.148C37.5353 118.095 37.8039 117.989 38.0188 117.936C37.9651 117.936 38.1261 117.831 38.3944 117.621C38.6628 117.411 38.9848 117.2 39.3067 116.885C39.6287 116.622 39.9507 116.359 40.2725 116.044C40.5407 115.781 40.7016 115.571 40.7013 115.466C40.7011 115.362 40.701 115.309 40.647 115.204C40.5931 115.1 40.5929 115.047 40.5928 114.995C40.5923 114.733 40.6456 114.523 40.8065 114.365C40.9675 114.208 41.1285 114.102 41.2895 113.997C41.4506 113.892 41.6116 113.787 41.7727 113.682C41.9337 113.576 41.987 113.367 41.9866 113.157C41.9865 113.105 41.9864 113.052 41.9862 113C41.9861 112.947 41.986 112.895 41.9859 112.842C41.9855 112.633 42.0389 112.475 42.1461 112.318C42.2533 112.16 42.4143 112.055 42.5215 111.898C42.6825 111.792 42.7898 111.687 42.8971 111.582C43.0044 111.477 43.0579 111.372 43.0576 111.215C43.0571 111.005 42.9493 110.848 42.7879 110.796C42.6264 110.691 42.5186 110.534 42.5181 110.325C42.7323 109.905 42.9463 109.433 43.1603 108.96C43.3743 108.488 43.6959 108.015 44.0714 107.648C44.125 107.595 44.1786 107.49 44.3393 107.228C44.5 106.965 44.6069 106.703 44.7138 106.388C44.8206 106.073 44.9275 105.758 45.0344 105.496C45.1414 105.234 45.1947 105.024 45.1944 104.867C45.1941 104.762 45.1399 104.552 45.0857 104.342C45.0315 104.133 44.9774 103.923 44.923 103.661C44.8688 103.452 44.7608 103.19 44.7064 102.875C44.438 103.086 44.1162 103.401 43.7945 103.821ZM44.0197 108.644C44.0735 108.644 44.1272 108.644 44.1809 108.591C44.1271 108.591 44.1271 108.591 44.1271 108.591C44.1271 108.591 44.1271 108.591 44.0734 108.591C44.0196 108.591 43.9659 108.592 43.9122 108.644C43.9659 108.592 43.966 108.644 44.0197 108.644C43.966 108.644 44.0197 108.644 44.0197 108.644Z"
              fill="#00BBC4"/>
        <path d="M93.2959 101.043C93.5638 100.623 93.7779 100.204 93.9383 99.7838C94.1524 99.3639 94.3128 98.9441 94.4731 98.4719C94.5798 98.1047 94.794 97.7373 95.1159 97.422C95.4377 97.0543 95.7595 96.7391 96.0815 96.4763C96.4035 96.2135 96.7254 95.9506 96.9939 95.7928C97.2623 95.6349 97.3697 95.5823 97.3697 95.5823C97.6378 95.2671 97.9063 95.1093 98.2826 95.1085C98.6588 95.1077 98.9813 95.0546 99.3037 95.0015C99.8412 95.0004 100.325 95.1566 100.863 95.4176C101.402 95.7311 101.94 95.8872 102.585 95.8859C102.746 95.9904 103.015 96.1471 103.284 96.3038C103.553 96.4605 103.876 96.6172 104.146 96.8787C104.415 97.1403 104.684 97.4019 104.846 97.7161C105.062 98.0302 105.17 98.4494 105.171 98.8688C105.172 99.2883 105.066 99.7603 104.852 100.233C104.637 100.705 104.316 101.23 103.941 101.703C103.565 102.175 103.136 102.648 102.654 103.121C102.171 103.594 101.688 103.962 101.205 104.277C100.936 104.435 100.668 104.645 100.4 104.908C100.131 105.171 99.9169 105.381 99.6486 105.591C99.3803 105.802 99.1657 106.012 98.8435 106.17C98.575 106.328 98.2527 106.433 97.8228 106.486C97.0167 106.593 96.5336 106.909 96.3197 107.433C96.1058 107.958 96.0005 109.007 96.0036 110.475C96.0052 111.261 96.1142 111.943 96.2767 112.519C96.4393 113.148 96.8698 113.409 97.5149 113.408C97.6224 113.407 97.9447 113.302 98.428 113.039C98.9112 112.776 99.4481 112.46 100.039 112.092C100.629 111.723 101.166 111.303 101.702 110.882C102.239 110.462 102.668 110.094 102.936 109.726C103.205 109.621 103.473 109.515 103.688 109.305C103.903 109.095 104.117 108.937 104.332 108.727C104.546 108.517 104.761 108.359 104.976 108.254C105.191 108.096 105.406 108.043 105.674 108.043C105.889 108.042 106.051 108.094 106.266 108.251C106.428 108.408 106.536 108.565 106.536 108.722C106.536 108.827 106.429 109.037 106.268 109.3C106.108 109.562 105.839 109.877 105.571 110.193C105.303 110.508 105.035 110.77 104.713 110.981C104.445 111.243 104.176 111.349 104.015 111.402C103.693 111.507 103.478 111.665 103.317 111.875C103.156 112.137 102.942 112.295 102.619 112.348C102.512 112.401 102.405 112.611 102.191 112.926C101.976 113.241 101.762 113.504 101.44 113.714C101.279 113.819 101.118 114.029 100.957 114.239C100.796 114.502 100.582 114.712 100.367 114.974C100.153 115.237 99.8843 115.395 99.5622 115.605C99.24 115.763 98.864 115.869 98.3802 115.87C98.1652 115.87 97.9501 115.871 97.6813 115.819C97.4124 115.767 97.1974 115.768 96.9286 115.768C96.8211 115.768 96.7673 115.768 96.6598 115.769C96.5523 115.769 96.4986 115.769 96.391 115.769C96.1223 115.77 95.8534 115.718 95.5306 115.614C95.2079 115.51 94.9388 115.353 94.6696 115.144C94.4003 114.935 94.1849 114.725 93.9694 114.516C93.8077 114.307 93.6998 114.097 93.6993 113.887C93.6991 113.783 93.6451 113.678 93.5913 113.626C93.5374 113.573 93.4298 113.521 93.3759 113.469C93.322 113.416 93.2144 113.364 93.1605 113.312C93.1067 113.26 93.0527 113.155 93.0523 112.945C93.0516 112.631 92.9434 112.316 92.674 112.002C92.4045 111.688 92.2963 111.321 92.2954 110.902C92.2952 110.797 92.4021 110.535 92.5623 110.01C92.7224 109.486 92.829 109.066 92.8282 108.646C92.8277 108.437 92.7195 108.122 92.5038 107.756C92.288 107.389 92.1798 107.075 92.1794 106.918C92.1788 106.603 92.1781 106.289 92.2311 105.921C92.2842 105.607 92.2835 105.292 92.2827 104.925C92.2825 104.82 92.2824 104.768 92.2822 104.663C92.282 104.558 92.2819 104.506 92.2816 104.401C92.442 103.981 92.6561 103.561 92.8702 103.089C93.0842 102.617 93.1908 102.197 93.1899 101.778C93.1898 101.725 93.1897 101.673 93.1896 101.62C93.1895 101.568 93.1895 101.568 93.1893 101.463C93.1889 101.306 93.2425 101.201 93.3498 101.096C93.2427 101.306 93.2962 101.201 93.2959 101.043ZM93.4035 101.096C93.3498 101.096 93.296 101.096 93.2959 101.043L93.4035 101.096ZM96.6351 104.077C97.6015 103.498 98.353 103.025 98.9435 102.604C99.5339 102.184 100.017 101.763 100.5 101.343C100.983 100.922 101.197 100.502 101.196 100.188C101.196 100.135 101.196 100.031 101.142 99.8735C101.087 99.6639 101.087 99.4542 101.033 99.2446C100.979 99.035 100.924 98.8254 100.817 98.6683C100.709 98.5112 100.601 98.4066 100.493 98.4068C100.278 98.4073 100.064 98.5126 99.7953 98.7229C99.527 98.9332 99.2588 99.1959 98.9907 99.511C98.7226 99.8261 98.4545 100.141 98.24 100.404C98.0256 100.719 97.8111 100.929 97.6501 101.087C97.3821 101.454 97.2217 101.822 97.0609 102.084C96.9002 102.347 96.7396 102.661 96.6328 102.976C96.4722 103.291 96.4189 103.501 96.4192 103.658C96.4732 103.763 96.5272 103.868 96.6351 104.077Z"
              fill="#00BBC4"/>
        <path d="M111.361 102.63C111.469 102.63 111.523 102.63 111.63 102.63C111.738 102.63 111.791 102.63 111.845 102.629C112.06 102.629 112.275 102.471 112.489 102.209C112.704 101.894 112.918 101.579 113.186 101.159C113.454 100.739 113.722 100.371 114.044 100.003C114.365 99.6358 114.687 99.3205 115.063 99.1624C115.278 98.8998 115.599 98.5322 116.028 98.1118C116.458 97.6915 116.941 97.2711 117.531 96.798C118.067 96.3774 118.712 96.0091 119.464 95.6929C120.162 95.3769 120.914 95.2704 121.72 95.2687C122.043 95.268 122.312 95.3199 122.581 95.3718C122.85 95.4236 123.119 95.5279 123.388 95.6322C123.657 95.6841 123.764 95.8411 123.818 95.9983C123.873 96.2079 124.034 96.3124 124.249 96.312C124.464 96.3639 124.68 96.5208 124.841 96.7301C125.003 96.9395 125.165 97.1489 125.327 97.4107C125.488 97.6725 125.596 97.9344 125.651 98.144C125.705 98.406 125.759 98.5632 125.759 98.7205C125.761 99.3496 125.655 100.084 125.495 100.923C125.336 101.762 125.069 102.549 124.748 103.231C124.48 103.809 124.159 104.334 123.837 104.806C123.516 105.279 123.194 105.856 122.927 106.433C122.766 106.853 122.552 107.273 122.177 107.588C121.855 107.904 121.479 108.271 121.157 108.639C120.996 108.797 120.889 108.954 120.729 109.217C120.622 109.427 120.461 109.637 120.3 109.847C120.139 110.057 119.978 110.214 119.817 110.425C119.656 110.582 119.442 110.687 119.173 110.74C118.904 110.741 118.797 110.794 118.743 110.899C118.69 111.004 118.636 111.161 118.637 111.318C118.637 111.528 118.369 111.738 117.885 112.001C117.402 112.265 116.865 112.475 116.221 112.739C115.576 112.95 114.931 113.161 114.34 113.32C113.696 113.478 113.266 113.532 112.943 113.532C112.728 113.533 112.513 113.481 112.352 113.376C112.136 113.272 111.975 113.22 111.76 113.22C111.545 113.221 111.384 113.378 111.223 113.693C111.063 114.008 110.956 114.375 110.85 114.847C110.743 115.267 110.69 115.739 110.637 116.159C110.584 116.578 110.585 116.945 110.586 117.207C110.586 117.469 110.587 117.679 110.641 117.941C110.695 118.203 110.696 118.413 110.696 118.675C110.697 118.937 110.697 119.147 110.698 119.357C110.698 119.566 110.699 119.776 110.699 120.038C110.7 120.3 110.754 120.51 110.916 120.667C111.077 120.824 111.239 120.981 111.293 121.243C111.347 121.452 111.402 121.714 111.456 121.976C111.51 122.238 111.511 122.501 111.511 122.815C111.512 123.077 111.513 123.339 111.567 123.549C111.675 123.916 111.783 124.283 111.891 124.544C111.999 124.806 112.054 125.121 112.055 125.435C112.055 125.593 112.055 125.802 112.056 126.012C112.056 126.222 112.003 126.432 111.896 126.589C111.789 126.747 111.628 126.904 111.359 127.01C111.091 127.115 110.768 127.168 110.284 127.169C110.016 127.17 109.747 127.065 109.531 126.804C109.262 126.542 109.1 126.228 108.884 125.809C108.722 125.39 108.559 124.918 108.451 124.342C108.342 123.818 108.287 123.241 108.286 122.612C108.285 122.35 108.339 122.14 108.445 121.878C108.552 121.615 108.606 121.406 108.605 121.196C108.389 120.829 108.227 120.463 108.119 120.096C108.011 119.782 107.903 119.52 107.795 119.205C107.687 118.891 107.632 118.681 107.632 118.524C107.632 118.367 107.685 118.209 107.792 118.104C107.9 117.947 107.953 117.789 107.953 117.685C107.952 117.527 107.898 117.423 107.844 117.265C107.79 117.161 107.736 117.003 107.736 116.846C107.736 116.741 107.736 116.636 107.789 116.532C107.843 116.427 107.842 116.322 107.842 116.217C107.842 116.06 107.842 115.955 107.788 115.85C107.734 115.745 107.733 115.64 107.733 115.483C107.733 115.378 107.786 115.273 107.84 115.063C107.839 114.801 107.785 114.592 107.677 114.33C107.569 114.068 107.515 113.858 107.514 113.596C107.513 113.177 107.62 112.705 107.78 112.18C107.94 111.655 108.047 111.288 108.046 111.026C108.046 110.974 108.046 110.921 107.992 110.869C107.938 110.817 107.938 110.764 107.938 110.712C107.938 110.607 107.991 110.502 108.045 110.397C108.099 110.344 108.152 110.239 108.152 110.082C108.151 109.925 108.043 109.715 107.882 109.558C107.72 109.401 107.612 109.244 107.612 109.139C107.612 109.035 107.719 108.93 107.88 108.772C108.041 108.614 108.148 108.457 108.148 108.352C108.148 108.247 108.094 108.09 107.986 107.88C107.878 107.671 107.824 107.461 107.823 107.252C107.822 106.885 107.876 106.622 107.983 106.412C108.09 106.203 108.197 106.045 108.304 105.94C108.412 105.835 108.519 105.73 108.626 105.625C108.734 105.572 108.787 105.467 108.787 105.31C108.786 105.152 108.732 105.048 108.625 104.943C108.517 104.838 108.409 104.681 108.301 104.367C108.408 104.105 108.569 103.79 108.675 103.475C108.836 103.16 108.889 102.793 108.888 102.531C108.888 102.216 108.78 101.954 108.564 101.64C108.348 101.326 108.24 100.959 108.239 100.54C108.239 100.33 108.346 100.068 108.56 99.648C108.774 99.2805 108.881 98.8609 108.88 98.4414C108.879 98.1269 108.825 97.76 108.77 97.4455C108.716 97.1311 108.661 96.7642 108.66 96.4496C108.66 96.1351 108.767 95.8203 108.981 95.5052C109.195 95.1902 109.302 94.8754 109.301 94.5084C109.301 94.2987 109.301 94.089 109.246 93.9318C109.192 93.7222 109.192 93.565 109.192 93.3552C109.191 93.0931 109.19 92.831 109.244 92.5687C109.297 92.254 109.35 91.9918 109.403 91.7295C109.51 91.4672 109.617 91.2572 109.778 91.0472C109.939 90.8371 110.1 90.7319 110.369 90.7313C110.584 90.7309 110.852 90.7828 111.229 90.8868C111.552 90.991 111.928 91.0951 112.197 91.3042C112.52 91.5132 112.79 91.7224 113.005 92.0365C113.221 92.3506 113.329 92.7174 113.33 93.1892C113.331 93.5038 113.278 93.8185 113.117 94.1858C112.957 94.5532 112.797 94.9729 112.636 95.3403C112.476 95.7076 112.315 96.1274 112.155 96.4947C111.994 96.862 111.941 97.2292 111.942 97.4913C111.943 98.1729 111.837 98.7498 111.677 99.2744C111.517 99.799 111.356 100.324 111.304 100.953C111.304 101.11 111.358 101.215 111.466 101.372C111.574 101.477 111.628 101.634 111.628 101.739C111.628 101.844 111.575 101.948 111.468 102.054C111.36 102.159 111.307 102.264 111.307 102.421C111.199 102.316 111.253 102.421 111.361 102.63C111.147 102.736 110.932 102.894 110.825 102.999C110.717 103.156 110.61 103.314 110.503 103.471C110.45 103.629 110.343 103.838 110.343 104.048C110.29 104.258 110.183 104.52 110.022 104.835L110.13 104.94C110.291 104.94 110.398 104.887 110.506 104.782C110.613 104.677 110.666 104.519 110.72 104.362C110.773 104.205 110.827 104.047 110.88 103.89C110.934 103.732 110.933 103.628 110.933 103.523C110.933 103.261 110.878 103.051 110.77 102.841C110.878 102.789 110.985 102.736 111.093 102.736C111.146 102.683 111.254 102.683 111.361 102.63ZM109.378 105.518C109.271 105.571 109.218 105.676 109.218 105.886C109.218 105.99 109.218 106.043 109.272 106.043C109.326 106.095 109.326 106.095 109.326 106.2C109.38 106.147 109.38 106.095 109.433 106.042C109.487 105.99 109.487 105.99 109.541 105.885C109.487 105.833 109.486 105.675 109.378 105.518ZM109.403 117.052C109.456 116.895 109.51 116.79 109.51 116.738L109.402 116.633C109.348 116.738 109.295 116.843 109.295 116.948L109.403 117.052ZM109.999 119.306L110.16 119.358L110.052 119.201L109.999 119.306ZM115.927 100.943C115.928 101.258 115.874 101.52 115.767 101.678C115.66 101.835 115.553 101.993 115.446 102.098C115.338 102.255 115.231 102.36 115.124 102.518C115.017 102.675 114.91 102.833 114.856 103.095C114.75 103.462 114.535 103.83 114.321 104.092C114.053 104.407 113.838 104.722 113.57 105.038C113.463 105.143 113.356 105.405 113.196 105.772C113.035 106.14 112.875 106.559 112.714 107.032C112.554 107.504 112.394 107.976 112.287 108.448C112.181 108.92 112.128 109.34 112.129 109.654C112.129 109.864 112.13 110.126 112.184 110.441C112.239 110.755 112.4 110.912 112.615 110.912C112.669 110.911 112.991 110.858 113.529 110.752C114.066 110.646 114.711 110.488 115.409 110.224C116.107 109.96 116.805 109.644 117.45 109.224C118.094 108.803 118.576 108.225 118.844 107.543C119.112 107.228 119.326 106.965 119.541 106.65C119.701 106.388 119.916 106.178 120.13 105.915C120.345 105.652 120.506 105.495 120.667 105.337C120.774 105.232 120.935 104.917 121.148 104.34C121.362 103.763 121.522 103.081 121.735 102.347C121.949 101.612 122.109 100.878 122.214 100.091C122.374 99.3568 122.427 98.7275 122.426 98.3081C122.425 97.9411 122.317 97.7316 122.155 97.6271C121.994 97.5226 121.725 97.4707 121.456 97.4713C120.919 97.4724 120.435 97.6307 119.952 97.9463C119.469 98.2619 118.986 98.6299 118.503 99.0503C118.02 99.4708 117.591 99.8387 117.162 100.207C116.786 100.679 116.357 100.89 115.927 100.943Z"
              fill="#00BBC4"/>
        <path d="M149.016 114.61C148.749 115.502 148.427 116.131 147.998 116.499C147.569 116.92 146.978 117.183 146.226 117.394C145.849 117.133 145.419 116.819 144.934 116.506C144.45 116.192 144.234 115.773 144.233 115.249C144.232 114.882 144.124 114.62 143.909 114.516C143.693 114.411 143.585 114.202 143.585 113.835C143.584 113.573 143.584 113.363 143.583 113.101C143.583 112.839 143.582 112.629 143.582 112.367C143.527 112 143.472 111.528 143.364 111.057C143.309 110.585 143.254 110.166 143.254 109.799C143.253 109.641 143.253 109.432 143.306 109.222C143.359 109.012 143.359 108.855 143.359 108.645C143.304 108.383 143.304 108.173 143.25 107.964C143.195 107.754 143.141 107.544 143.141 107.335C143.141 107.177 143.194 106.968 143.247 106.758C143.3 106.548 143.354 106.39 143.354 106.233C143.353 106.076 143.353 105.919 143.299 105.761C143.245 105.604 143.244 105.447 143.244 105.29C143.243 104.818 143.296 104.293 143.402 103.717C143.508 103.14 143.561 102.615 143.56 102.091C143.559 101.934 143.559 101.776 143.559 101.671C143.559 101.514 143.451 101.41 143.289 101.357C143.236 101.358 143.182 101.358 143.128 101.358C143.074 101.358 143.021 101.358 142.967 101.358C142.967 101.411 142.86 101.621 142.646 101.883C142.431 102.198 142.163 102.513 141.895 102.881C141.627 103.248 141.359 103.616 141.091 103.984C140.823 104.351 140.662 104.666 140.555 104.876C140.502 105.033 140.395 105.191 140.342 105.453C140.235 105.715 140.128 105.925 140.021 106.135C139.913 106.345 139.806 106.608 139.646 106.975C139.377 107.08 139.216 107.186 139.109 107.396C139.002 107.605 138.895 107.763 138.788 107.973C138.681 108.183 138.628 108.393 138.574 108.55C138.521 108.76 138.414 108.865 138.36 108.97C137.984 109.285 137.663 109.705 137.342 110.335C137.02 110.965 136.645 111.595 136.217 112.225C135.788 112.855 135.305 113.38 134.769 113.853C134.232 114.326 133.534 114.59 132.781 114.592C132.029 114.593 131.33 114.332 130.576 113.862C129.822 113.339 129.444 112.606 129.335 111.558C129.28 111.034 129.171 110.562 128.955 110.091C128.793 109.619 128.685 109.148 128.683 108.623C128.682 107.837 128.734 106.998 128.786 106.159C128.838 105.32 128.997 104.533 129.103 103.799C129.103 103.747 129.157 103.537 129.209 103.17C129.262 102.75 129.315 102.278 129.368 101.649C129.42 101.02 129.472 100.338 129.524 99.6039C129.577 98.8173 129.575 98.0309 129.573 97.2445C129.573 97.0872 129.572 96.8775 129.518 96.6679C129.464 96.4583 129.464 96.301 129.463 96.0913C129.463 95.934 129.517 95.8291 129.677 95.6714C129.838 95.5662 129.946 95.5136 130.107 95.5132C130.645 95.5645 131.183 95.7207 131.721 95.9817C132.259 96.2427 132.475 96.6093 132.476 97.1335C132.318 98.9164 132.161 100.647 132.003 102.273C131.845 103.951 131.741 105.681 131.745 107.411C131.746 107.726 131.746 108.093 131.747 108.512C131.748 108.931 131.803 109.298 131.857 109.718C131.912 110.085 131.966 110.451 132.074 110.713C132.183 110.975 132.344 111.132 132.505 111.132C132.774 111.131 133.15 110.816 133.632 110.238C134.115 109.66 134.597 108.925 135.187 108.085C135.722 107.245 136.312 106.405 136.848 105.513C137.383 104.62 137.866 103.885 138.294 103.308C138.562 102.993 138.777 102.73 139.045 102.572C139.314 102.414 139.475 102.152 139.581 101.732C139.688 101.313 139.956 100.945 140.331 100.577C140.707 100.209 141.029 99.8942 141.297 99.5791C141.458 99.4215 141.726 99.1063 142.047 98.6862C142.369 98.2661 142.691 97.846 143.066 97.4258C143.442 97.0056 143.817 96.6378 144.139 96.3226C144.515 96.0072 144.783 95.8494 145.052 95.8488C145.267 95.8483 145.482 95.8479 145.75 95.7949C146.019 95.7419 146.288 95.7413 146.557 95.7408C147.578 95.7386 148.331 96.0516 148.763 96.6274C149.194 97.2556 149.41 97.9892 149.412 98.828C149.414 99.6669 149.308 100.506 149.095 101.345C148.882 102.185 148.776 102.919 148.777 103.6C148.778 103.758 148.778 103.915 148.778 104.072C148.779 104.229 148.779 104.387 148.779 104.596C148.781 105.226 148.728 105.802 148.622 106.432C148.516 107.009 148.463 107.638 148.464 108.215C148.52 108.896 148.629 109.577 148.684 110.311C148.793 111.045 148.848 111.674 148.849 112.303C148.849 112.356 148.85 112.408 148.85 112.461C148.85 112.513 148.85 112.565 148.85 112.618C148.851 112.932 148.905 113.194 149.013 113.456C148.746 114.086 148.907 114.348 149.016 114.61Z"
              fill="#00BBC4"/>
        <path d="M170.893 114.354C170.947 114.511 171.001 114.668 171.001 114.721C171.001 114.773 170.948 114.826 170.894 115.036C170.841 115.193 170.734 115.35 170.68 115.56C170.573 115.77 170.466 115.928 170.359 116.085C170.252 116.243 170.091 116.296 169.983 116.296C169.822 116.296 169.714 116.191 169.606 116.034C169.498 115.877 169.444 115.72 169.336 115.563C169.444 115.563 169.498 115.563 169.498 115.563C169.551 115.563 169.551 115.563 169.659 115.562C169.336 115.563 169.121 115.511 169.067 115.354C169.013 115.197 168.852 115.145 168.583 115.145C168.261 115.408 167.885 115.671 167.51 116.039C167.134 116.407 166.705 116.617 166.275 116.618C165.845 116.619 165.522 116.41 165.306 116.043C165.09 115.677 164.928 115.258 164.873 114.734C164.764 114.21 164.71 113.685 164.708 113.161C164.707 112.584 164.653 112.165 164.544 111.798C164.651 111.484 164.758 111.116 164.864 110.697C165.025 110.277 165.078 110.015 165.078 109.805C165.077 109.7 165.077 109.543 165.077 109.438C165.077 109.333 165.076 109.176 165.076 109.019C165.075 108.756 165.075 108.547 165.074 108.285C165.074 108.022 165.073 107.76 165.073 107.551C165.073 107.393 165.072 107.288 165.072 107.131C165.072 107.026 165.071 106.869 165.017 106.712C165.071 106.659 165.071 106.554 165.071 106.502C165.07 106.24 164.962 106.03 164.801 105.873C164.639 105.664 164.531 105.507 164.531 105.297C164.53 105.088 164.583 104.825 164.636 104.511C164.689 104.196 164.743 103.881 164.742 103.619C164.742 103.514 164.741 103.305 164.687 103.043C164.633 102.78 164.578 102.518 164.524 102.204C164.47 101.89 164.362 101.628 164.307 101.418C164.199 101.156 164.145 101.051 164.038 100.999C164.038 101.052 163.823 101.314 163.448 101.734C163.073 102.155 162.643 102.627 162.215 103.205C161.786 103.73 161.303 104.255 160.928 104.728C160.499 105.201 160.284 105.516 160.285 105.673C160.178 105.988 159.963 106.198 159.641 106.251C159.318 106.304 158.996 106.357 158.62 106.358C158.028 106.36 157.491 106.361 157.115 106.361C156.685 106.362 156.362 106.311 156.039 106.206C155.716 106.102 155.447 105.946 155.232 105.789C155.017 105.579 154.801 105.318 154.585 104.951C154.154 104.271 153.829 103.485 153.613 102.646C153.396 101.808 153.287 101.022 153.285 100.34C153.284 99.8159 153.337 99.344 153.497 98.8718C153.657 98.3996 153.71 97.9276 153.709 97.4558C153.709 97.1936 153.708 97.0364 153.654 96.9316C153.708 96.6694 153.761 96.3547 153.867 96.0399C153.921 95.7252 154.027 95.4104 154.134 95.0956C154.241 94.7808 154.348 94.5709 154.509 94.3608C154.67 94.1508 154.831 94.0456 155.1 94.045C155.745 94.0437 156.175 94.2 156.498 94.5664C156.768 94.8804 156.93 95.3519 156.931 95.8237C156.932 96.1907 156.933 96.5577 156.933 96.8723C156.934 97.2393 156.935 97.6063 156.936 97.9208C156.936 98.0781 156.937 98.4451 156.938 98.9694C156.939 99.5461 156.994 100.123 157.103 100.699C157.211 101.328 157.32 101.852 157.536 102.324C157.698 102.795 157.968 103.057 158.29 103.056C158.344 103.056 158.398 103.056 158.398 103.056L158.451 103.056C159.256 102.425 160.115 101.637 160.973 100.743C161.831 99.798 162.582 98.9575 163.225 98.1173C163.332 97.9598 163.493 97.6449 163.653 97.2251C163.814 96.8054 163.974 96.3332 164.188 95.9133C164.402 95.4934 164.67 95.0734 164.992 94.7582C165.314 94.4429 165.69 94.2324 166.174 94.2314C166.389 94.2834 166.604 94.3878 166.765 94.4399C166.927 94.5444 167.142 94.5964 167.357 94.5959C167.464 94.5957 167.572 94.5955 167.679 94.5428C167.787 94.4902 167.894 94.4899 168.002 94.4897C168.593 94.4885 169.023 94.5924 169.4 94.8013C169.723 95.0104 170.046 95.2718 170.208 95.6385C170.424 95.9526 170.532 96.3718 170.587 96.7911C170.642 97.2104 170.696 97.6822 170.697 98.154C170.698 98.5734 170.699 98.9929 170.646 99.36C170.593 99.7795 170.594 100.147 170.595 100.514C170.595 100.671 170.595 100.776 170.596 100.933C170.596 101.038 170.596 101.195 170.65 101.3C170.651 101.51 170.597 101.667 170.49 101.824C170.383 101.982 170.329 102.139 170.33 102.244C170.33 102.349 170.384 102.401 170.491 102.454C170.599 102.506 170.653 102.611 170.653 102.715C170.654 102.978 170.6 103.187 170.44 103.45C170.279 103.712 170.226 103.975 170.226 104.289C170.228 104.866 170.283 105.495 170.338 106.124C170.393 106.753 170.448 107.33 170.449 107.959C170.396 108.116 170.396 108.326 170.397 108.588C170.398 109.007 170.452 109.427 170.561 109.846C170.669 110.265 170.778 110.684 170.94 111.103C170.94 111.156 170.94 111.156 170.94 111.208C170.94 111.261 170.94 111.261 170.94 111.313C170.941 111.575 170.887 111.785 170.727 112.1C170.566 112.362 170.513 112.625 170.513 112.887C170.407 113.254 170.569 113.778 170.893 114.354ZM165.3 113.16C165.353 113.107 165.353 113.055 165.407 113.055C165.461 113.055 165.461 113.002 165.461 113.002C165.46 112.845 165.406 112.531 165.298 112.111C165.244 112.321 165.191 112.479 165.137 112.584C165.084 112.688 165.084 112.793 165.084 112.898C165.084 112.951 165.138 113.055 165.3 113.16ZM166.952 106.288C166.952 106.393 167.006 106.445 167.167 106.445C167.274 106.445 167.382 106.392 167.435 106.287C167.489 106.182 167.542 106.077 167.596 105.972C167.542 105.92 167.542 105.815 167.488 105.71C167.434 105.606 167.38 105.553 167.326 105.554C167.165 105.554 167.058 105.607 167.004 105.711C166.951 105.816 166.897 105.921 166.897 106.026C166.898 106.131 166.951 106.183 166.952 106.288ZM167.549 109.275C167.657 109.17 167.71 108.961 167.709 108.751C167.709 108.384 167.655 108.227 167.547 108.174C167.439 108.122 167.332 108.122 167.278 108.07C167.224 108.175 167.171 108.333 167.171 108.437C167.172 108.595 167.172 108.7 167.172 108.804C167.172 108.909 167.172 109.014 167.226 109.119C167.28 109.224 167.334 109.276 167.495 109.276C167.549 109.275 167.549 109.275 167.549 109.275C167.549 109.275 167.495 109.276 167.549 109.275C167.549 109.328 167.549 109.328 167.55 109.433L167.657 109.328L167.549 109.275ZM167.431 104.295C167.431 104.295 167.377 104.243 167.431 104.295C167.324 104.243 167.27 104.295 167.27 104.4C167.27 104.453 167.27 104.453 167.27 104.453L167.27 104.505C167.324 104.453 167.324 104.453 167.324 104.453C167.324 104.453 167.378 104.452 167.378 104.4C167.431 104.4 167.431 104.347 167.431 104.295ZM169.914 108.903C169.913 108.641 169.913 108.432 169.912 108.274C169.912 108.065 169.858 107.855 169.857 107.645C169.643 107.908 169.428 108.171 169.268 108.433C169.053 108.748 168.946 109.063 168.947 109.43C168.947 109.535 169.002 109.692 169.109 109.796C169.377 109.534 169.592 109.376 169.7 109.376C169.753 109.323 169.86 109.166 169.914 108.903ZM169.919 111.525C169.919 111.315 169.865 111.106 169.757 110.949C169.649 111.001 169.596 111.159 169.596 111.368C169.596 111.421 169.597 111.473 169.597 111.526C169.597 111.578 169.704 111.63 169.812 111.63L169.919 111.525ZM169.692 105.706C169.692 105.758 169.692 105.758 169.692 105.706C169.638 105.758 169.638 105.758 169.638 105.811C169.638 105.863 169.692 105.916 169.8 105.915C169.854 105.915 169.854 105.915 169.854 105.915C169.8 105.915 169.854 105.863 169.907 105.81C169.907 105.653 169.853 105.601 169.745 105.601C169.746 105.653 169.746 105.653 169.746 105.653C169.692 105.653 169.692 105.706 169.692 105.706Z"
              fill="#00BBC4"/>
        <path d="M81.0378 100.44C80.8775 100.912 80.7172 101.384 80.503 101.752C80.2888 102.172 80.1823 102.644 80.1833 103.116C80.1834 103.168 80.1837 103.273 80.1838 103.325C80.184 103.43 80.1841 103.483 80.1842 103.535C80.1848 103.797 80.0778 104.06 79.9173 104.427C79.7567 104.742 79.6502 105.214 79.6514 105.791C79.5979 105.896 79.5444 106.001 79.3835 106.211C79.2226 106.368 79.1155 106.578 78.9548 106.841C78.7941 107.103 78.6871 107.313 78.5263 107.576C78.4194 107.838 78.3662 108.1 78.3667 108.362C78.367 108.467 78.3672 108.572 78.4212 108.677C78.4751 108.781 78.4754 108.886 78.4756 108.991C78.4758 109.096 78.476 109.201 78.4224 109.253C78.1547 109.778 77.941 110.408 77.7276 111.142C77.5141 111.877 77.3006 112.611 76.9796 113.346C76.7124 114.08 76.3911 114.658 76.0159 115.183C75.6408 115.708 75.2112 115.919 74.6736 115.92C74.4048 115.92 74.1897 115.868 73.9745 115.764C73.7592 115.66 73.5439 115.503 73.3823 115.346C73.2207 115.189 73.0591 115.032 72.9514 114.927C72.8435 114.77 72.7897 114.718 72.7894 114.613C72.7891 114.456 72.8961 114.193 73.1642 113.878C73.5929 113.248 73.9139 112.513 74.127 111.622C74.3401 110.73 74.6609 109.891 75.0893 109.103C75.1427 108.946 75.1961 108.788 75.1958 108.631C75.3013 107.687 75.568 106.69 75.9958 105.641C76.4236 104.592 76.9054 103.647 77.4949 102.807C77.5485 102.702 77.6018 102.492 77.6549 102.177C77.8145 101.39 78.0818 100.708 78.5105 100.078C78.9392 99.4483 79.368 98.8707 79.8506 98.2929C80.0113 98.0304 80.2793 97.6629 80.6007 97.1379C80.9222 96.613 81.3511 96.0878 81.78 95.5626C82.2089 95.0374 82.7455 94.5644 83.2823 94.1963C83.8189 93.7757 84.4099 93.6172 85.055 93.6158C85.5925 93.6147 86.0765 93.7186 86.5609 93.9797C87.0452 94.2408 87.4757 94.4496 87.9063 94.7108L87.8525 94.711C87.8526 94.7634 87.9065 94.8157 88.0145 95.0252C88.1223 95.1822 88.1764 95.3394 88.2844 95.5489C88.3923 95.7584 88.4464 95.9156 88.5542 96.0726C88.6621 96.2297 88.716 96.3344 88.7162 96.3868C88.7167 96.649 88.6635 96.9112 88.5029 97.2261C88.3422 97.4886 88.2891 97.8033 88.2898 98.1179C88.2899 98.1703 88.29 98.2227 88.2901 98.2752C88.2902 98.3276 88.2903 98.38 88.2904 98.4324C88.0761 98.7475 87.9694 99.1147 88.0239 99.4816C88.0784 99.8485 88.0254 100.216 87.9186 100.53C87.8117 100.845 87.7587 101.16 87.7593 101.474C87.7597 101.632 87.7601 101.841 87.7604 101.999C87.7608 102.156 87.815 102.366 87.8153 102.523C87.8156 102.68 87.816 102.837 87.8162 102.942C87.8165 103.1 87.763 103.205 87.7633 103.362C87.7642 103.781 87.6037 104.149 87.3357 104.516C87.0676 104.831 86.9071 105.199 86.908 105.618C86.9082 105.723 86.9083 105.775 86.9621 105.775C87.124 106.089 87.2323 106.456 87.2868 106.823C87.3414 107.19 87.342 107.505 87.3427 107.819C87.3442 108.553 87.1842 109.13 86.9164 109.603C87.187 110.441 87.296 111.175 87.4049 111.804C87.4598 112.38 87.515 113.062 87.5165 113.743C87.5174 114.163 87.572 114.582 87.6803 114.949C87.7886 115.315 87.8431 115.682 87.8438 115.997C87.8443 116.259 87.791 116.469 87.6839 116.679C87.577 116.941 87.5237 117.151 87.4701 117.256C87.4167 117.413 87.3632 117.518 87.3095 117.571C87.2559 117.623 87.1485 117.676 86.9873 117.729C86.8261 117.729 86.6648 117.729 86.396 117.73C85.6435 117.732 85.1054 117.471 84.6204 116.895C84.1892 116.372 83.8652 115.691 83.5948 114.905C83.3781 114.119 83.2152 113.333 83.1598 112.546C83.1043 111.708 83.0492 111.079 83.048 110.502C83.0471 110.083 83.046 109.558 83.0985 108.981C83.151 108.405 83.1497 107.776 83.1483 107.094C83.1477 106.832 83.1473 106.622 83.1467 106.36C83.1462 106.098 83.1456 105.836 83.1452 105.626C83.1443 105.207 83.197 104.735 83.2496 104.158C83.3022 103.633 83.3546 103.004 83.4072 102.427C83.4596 101.798 83.512 101.169 83.5645 100.54C83.6169 99.9103 83.6692 99.2286 83.668 98.6519C83.6678 98.547 83.6675 98.4422 83.6673 98.3373C83.6671 98.2325 83.6132 98.1801 83.5057 98.1804C83.3444 98.1807 83.1834 98.2859 83.0226 98.496C82.8618 98.706 82.647 98.8113 82.3782 98.8119C82.2169 98.8122 82.0561 99.0223 81.7881 99.3898C81.6814 99.7571 81.3596 100.125 81.0378 100.44C80.984 100.44 80.9839 100.388 81.0376 100.388C81.0914 100.387 81.0913 100.335 81.0913 100.335L80.9298 100.231C80.9837 100.283 80.9838 100.335 80.9838 100.335C80.9838 100.335 80.9839 100.388 81.0378 100.44Z"
              fill="#00BBC4"/>
    </g>
    <path fill-rule="evenodd" clip-rule="evenodd"
          d="M143.68 65.1953C143.68 63.2312 143.898 61.4853 144.115 59.5211C144.767 57.1205 145.637 54.7198 147.376 52.3192C150.202 48.1726 155.853 45.5537 161.94 44.2443C169.113 42.7166 176.939 43.1531 182.156 44.899C186.068 46.2085 189.112 48.6091 191.068 52.1009C192.807 55.1563 193.894 59.0846 193.676 64.1041C194.328 64.9771 194.981 66.0683 195.415 67.3777C195.85 68.6872 195.85 70.2149 195.198 71.3061V71.5243L194.981 71.7425C191.068 75.8891 185.851 78.9445 179.764 81.5633C173.895 83.964 167.374 85.9281 161.288 87.2376C159.114 87.8923 157.375 88.1105 155.636 87.8923C153.897 87.8923 152.593 87.4558 151.288 86.8011C149.115 85.9281 146.941 84.8369 144.767 83.5275C142.811 82.4363 140.637 80.9086 138.898 79.5992C137.377 78.508 136.507 77.1985 136.072 75.6708C135.638 74.1432 136.072 72.6155 137.811 70.8696L143.68 65.1953ZM193.024 67.596C192.807 67.8142 192.807 68.0325 192.589 68.2507C192.155 68.9054 191.503 69.3419 190.851 69.7784C187.807 71.9608 184.329 73.7067 180.634 75.0161C176.939 76.3256 173.026 77.4168 169.113 78.508C169.113 78.508 168.678 78.508 168.244 78.7262C164.983 79.3809 161.722 79.8174 157.375 77.4168C156.94 77.635 156.505 77.635 156.071 77.635C155.419 77.8532 154.984 77.8532 154.549 78.0715L154.114 78.2897H153.68C150.202 77.1985 148.028 75.2344 146.506 73.7067L146.289 73.4885V73.052C146.072 72.3973 146.289 72.179 146.289 71.7425C146.289 71.5243 146.289 71.5243 146.289 71.3061C145.637 70.6513 145.202 69.9966 144.767 69.1237C144.55 68.9054 144.333 68.4689 144.333 68.2507L139.768 72.8337C138.898 73.9249 138.463 74.7979 138.681 75.4526C138.898 76.3256 139.55 77.1985 140.637 78.0715C142.376 79.3809 144.333 80.6904 146.289 81.7816C148.245 82.8728 150.419 83.964 152.593 84.8369C153.68 85.2734 154.766 85.4916 156.071 85.7099C157.375 85.7099 159.114 85.4916 161.07 85.0552C167.157 83.5275 173.678 81.7816 179.33 79.3809C184.981 76.9803 189.764 74.1432 193.459 70.2149C193.676 69.5601 193.676 68.6872 193.459 67.8142C193.242 68.0325 193.024 67.8142 193.024 67.596ZM191.285 66.0683C191.503 60.6123 190.633 56.4657 188.894 53.4104C187.155 50.355 184.547 48.3909 181.069 47.0814C176.286 45.3355 168.896 45.1173 162.157 46.4267C156.723 47.7361 151.723 49.9185 149.115 53.6286C147.593 55.811 146.724 57.9934 146.289 60.1758C145.854 62.3582 145.854 64.5406 145.854 66.723H145.637C145.854 67.1595 146.072 67.596 146.289 68.0325C146.506 68.4689 146.724 68.9054 147.158 69.3419C147.376 66.2865 147.811 62.5765 148.897 59.3029C149.984 55.811 151.506 52.7557 153.897 51.228C156.071 49.9185 158.244 48.8273 160.853 47.9544C163.461 47.0814 166.287 46.6449 169.548 46.2085V47.2997C166.287 47.5179 163.461 48.1726 161.07 48.8273C158.679 49.7003 156.505 50.7915 154.549 52.1009C152.593 53.4104 151.071 56.2475 149.984 59.5211C148.68 63.8859 148.245 68.9054 148.245 72.3973C149.549 73.4885 151.071 75.0161 153.462 75.8891C153.462 71.7425 153.462 66.723 154.549 62.14C155.636 58.4299 157.158 55.1563 159.983 53.1921C166.287 48.3909 175.417 49.0456 182.808 48.6091V49.7003C179.112 49.9185 175.852 50.1368 172.808 50.7915C169.765 51.4462 167.157 52.5374 164.766 54.5016C162.592 56.2475 160.853 59.3029 159.766 63.0129C158.462 67.1595 158.027 71.9608 158.462 75.4526C162.157 77.4168 164.983 76.9803 168.026 76.3256C168.244 76.3256 168.461 76.3256 168.896 76.1073C172.808 75.2344 176.504 74.1432 180.199 72.8337C183.677 71.5243 186.938 69.9966 189.981 67.8142C190.416 67.3777 190.85 67.1595 191.285 66.723C191.068 66.5048 191.285 66.2865 191.285 66.0683ZM154.766 75.6708C154.984 75.6708 155.201 75.6708 155.419 75.4526C156.071 75.2344 156.505 75.2344 156.94 75.0161H157.158C156.94 71.5243 157.375 66.723 158.462 62.5765C159.549 58.8664 161.288 55.3745 163.679 53.6286C165.418 52.3192 166.939 51.4462 168.896 50.7915C165.635 51.4462 162.592 52.3192 160.418 54.0651C158.244 55.811 156.723 59.0846 155.636 62.5765C154.549 66.9413 154.549 71.7425 154.766 75.6708Z"
          fill="#01BBC4"/>
    <defs>
        <clipPath id="clip0">
            <rect width="148.955" height="46.766" fill="white"
                  transform="matrix(0.999998 -0.00210446 0.00211313 0.999998 21.9731 80.327)"/>
        </clipPath>
    </defs>
</svg>

